<svg width="273" height="329.25" viewBox="0 0 1456 1756" 
        fill="none" xmlns="http://www.w3.org/2000/svg" xmlns:xlink="http://www.w3.org/1999/xlink" version="1.1">
        <defs>
            


<linearGradient id="icon_3_paint0_linear_6_2" x1="128" y1="43" x2="128" y2="213" gradientUnits="userSpaceOnUse">
<stop stop-color="#74DCFA"/>
<stop offset="0.3" stop-color="#FBEAA5"/>
<stop offset="1" stop-color="#FF8B72"/>
</linearGradient>
<linearGradient id="icon_3_paint1_linear_6_2" x1="94.3106" y1="100.172" x2="120.367" y2="156.05" gradientUnits="userSpaceOnUse">
<stop stop-color="#633707"/>
<stop offset="1" stop-color="#B65E00"/>
</linearGradient>
<linearGradient id="icon_3_paint2_linear_6_2" x1="100.875" y1="88.4203" x2="75.6837" y2="87.7775" gradientUnits="userSpaceOnUse">
<stop stop-color="#7DDB4D"/>
<stop offset="1" stop-color="#437529"/>
</linearGradient>
<linearGradient id="icon_3_paint3_linear_6_2" x1="100.538" y1="107.751" x2="70.638" y2="107.138" gradientUnits="userSpaceOnUse">
<stop stop-color="#7DDB4D"/>
<stop offset="1" stop-color="#437529"/>
</linearGradient>
<linearGradient id="icon_3_paint4_linear_6_2" x1="118.001" y1="82.303" x2="100.888" y2="81.9501" gradientUnits="userSpaceOnUse">
<stop stop-color="#7DDB4D"/>
<stop offset="1" stop-color="#437529"/>
</linearGradient>
<linearGradient id="icon_3_paint5_linear_6_2" x1="142.308" y1="90.0226" x2="100.87" y2="88.9394" gradientUnits="userSpaceOnUse">
<stop stop-color="#7DDB4D"/>
<stop offset="1" stop-color="#437529"/>
</linearGradient>
<linearGradient id="icon_3_paint6_linear_6_2" x1="137.706" y1="104.394" x2="100.612" y2="103.575" gradientUnits="userSpaceOnUse">
<stop stop-color="#7DDB4D"/>
<stop offset="1" stop-color="#437529"/>
</linearGradient>
<linearGradient id="icon_3_paint7_linear_6_2" x1="101.085" y1="114.2" x2="84.5382" y2="113.891" gradientUnits="userSpaceOnUse">
<stop stop-color="#7DDB4D"/>
<stop offset="1" stop-color="#437529"/>
</linearGradient>
<linearGradient id="icon_3_paint8_linear_6_2" x1="143.167" y1="140.281" x2="141.369" y2="151.631" gradientUnits="userSpaceOnUse">
<stop stop-color="#EE2700"/>
<stop offset="1" stop-color="#FF118C"/>
</linearGradient>
<linearGradient id="icon_3_paint9_linear_6_2" x1="6462.76" y1="7666.43" x2="9843.14" y2="1224" gradientUnits="userSpaceOnUse">
<stop stop-color="#FFF400"/>
<stop offset="0.793269" stop-color="#3C8700"/>
</linearGradient>
<linearGradient id="icon_3_paint10_linear_6_2" x1="3292.56" y1="34.1832" x2="3292.56" y2="6288.64" gradientUnits="userSpaceOnUse">
<stop stop-color="#FFDF00"/>
<stop offset="1" stop-color="#FF9D00"/>
</linearGradient>
<linearGradient id="icon_3_paint11_linear_6_2" x1="-nan" y1="-nan" x2="-nan" y2="-nan" gradientUnits="userSpaceOnUse">
<stop stop-color="#FFA400"/>
<stop offset="1" stop-color="#FF5E00"/>
</linearGradient>
<linearGradient id="icon_3_paint12_linear_6_2" x1="1081.43" y1="126.6" x2="182.134" y2="294.706" gradientUnits="userSpaceOnUse">
<stop stop-color="#FFA400"/>
<stop offset="1" stop-color="#FF5E00"/>
</linearGradient>
<linearGradient id="icon_3_paint13_linear_6_2" x1="1168.55" y1="176.234" x2="193.715" y2="387.518" gradientUnits="userSpaceOnUse">
<stop stop-color="#FFA400"/>
<stop offset="1" stop-color="#FF5E00"/>
</linearGradient>
<linearGradient id="icon_3_paint14_linear_6_2" x1="997.616" y1="209.498" x2="247.158" y2="528.871" gradientUnits="userSpaceOnUse">
<stop stop-color="#FFA400"/>
<stop offset="1" stop-color="#FF5E00"/>
</linearGradient>
<linearGradient id="icon_3_paint15_linear_6_2" x1="864.505" y1="115.911" x2="187.596" y2="621.151" gradientUnits="userSpaceOnUse">
<stop stop-color="#FFA400"/>
<stop offset="1" stop-color="#FF5E00"/>
</linearGradient>
<linearGradient id="icon_3_paint16_linear_6_2" x1="470.951" y1="96.7277" x2="100.304" y2="577.654" gradientUnits="userSpaceOnUse">
<stop stop-color="#FFA400"/>
<stop offset="1" stop-color="#FF5E00"/>
</linearGradient>
<linearGradient id="icon_3_paint17_linear_6_2" x1="302.917" y1="101.274" x2="55.4892" y2="682.439" gradientUnits="userSpaceOnUse">
<stop stop-color="#FFA400"/>
<stop offset="1" stop-color="#FF5E00"/>
</linearGradient>
<linearGradient id="icon_3_paint18_linear_6_2" x1="203.287" y1="103.754" x2="-29.227" y2="685.985" gradientUnits="userSpaceOnUse">
<stop stop-color="#FFA400"/>
<stop offset="1" stop-color="#FF5E00"/>
</linearGradient>






















<linearGradient id="icon_26_linearGradient1" x1="124.565" y1="40.7127" x2="186.893" y2="107.33" gradientUnits="userSpaceOnUse">
<stop offset="0.0939" stop-color="#58D09E"/>
<stop offset="0.9883" stop-color="#58D09E" stop-opacity="0"/>
</linearGradient>
<linearGradient id="icon_26_linearGradient2" x1="50.125" y1="165.168" x2="169.201" y2="196.862" gradientUnits="userSpaceOnUse">
<stop offset="0.0774" stop-color="#58D09E"/>
<stop offset="0.7617" stop-color="#58D09E" stop-opacity="0"/>
</linearGradient>


<linearGradient id="icon_29_linearGradient1" x1="196.867" y1="58.3577" x2="135.972" y2="122.837" gradientUnits="userSpaceOnUse">
<stop offset="0.176" stop-color="#0052CC"/>
<stop offset="1" stop-color="#2684FF"/>
</linearGradient>
<linearGradient id="icon_29_linearGradient2" x1="124.291" y1="132.726" x2="87.5598" y2="169.618" gradientUnits="userSpaceOnUse">
<stop offset="0.176" stop-color="#0052CC"/>
<stop offset="1" stop-color="#2684FF"/>
</linearGradient>
        </defs>
        
            <g transform="translate(0, 0)">
                <svg width="256" height="256" title="Next.js" viewBox="0 0 256 256" fill="none" xmlns="http://www.w3.org/2000/svg" id="nextjs">
<style>
#nextjs {
    rect {fill: #15191C}
    path {fill: #F4F2ED}

    @media (prefers-color-scheme: light) {
        rect {fill: #F4F2ED}
        path {fill: #15191C}
    }
}
</style>
<rect width="256" height="256" rx="25" fill="#15191C"/>
<path d="M177.099 201.256C163.194 210.568 146.474 216 128.5 216C80.2073 216 41 176.793 41 128.5C41 80.2073 80.2073 41 128.5 41C176.793 41 216 80.2073 216 128.5C216 154.626 204.523 178.091 186.345 194.132L108.222 93.5H93.5V163.471H105.276V108.455L177.099 201.256ZM152.803 139.036L164.47 154.065V93.5H152.803V139.036Z" fill="#F4F2ED"/>
</svg>
            </g>

            <g transform="translate(300, 0)">
                <svg width="256" height="256" title="React.js" viewBox="0 0 256 256" fill="none" xmlns="http://www.w3.org/2000/svg" id="reactjs">
<style>
#reactjs {
    rect {fill: #15191C}

    @media (prefers-color-scheme: light) {
        rect {fill: #F4F2ED}
    }
}
</style>
<rect width="256" height="256" rx="25" fill="#15191C"/>
<path d="M144.76 127.948C144.76 132.271 143.044 136.417 139.988 139.474C136.932 142.532 132.786 144.25 128.464 144.252C124.139 144.252 119.992 142.534 116.935 139.477C113.877 136.419 112.159 132.272 112.159 127.948C112.159 123.625 113.876 119.479 116.932 116.422C119.988 113.364 124.133 111.646 128.456 111.644C132.78 111.644 136.927 113.361 139.985 116.419C143.043 119.477 144.76 123.624 144.76 127.948ZM164.069 50C154.254 50 141.414 57 128.427 69.1188C115.448 57.0656 102.6 50.1458 92.7927 50.1458C89.8031 50.1458 87.0833 50.824 84.7281 52.1729C74.7021 57.9552 72.4563 75.9729 77.6333 98.5844C55.4375 105.439 41 116.398 41 127.948C41 139.542 55.5104 150.53 77.7719 157.333C72.6385 180.032 74.9281 198.079 84.976 203.854C87.3094 205.218 90.0073 205.859 93.0115 205.859C102.819 205.859 115.667 198.859 128.653 186.726C141.632 198.786 154.48 205.706 164.288 205.706C167.277 205.706 169.997 205.05 172.352 203.701C182.371 197.926 184.624 179.908 179.447 157.29C201.562 150.494 216 139.512 216 127.948C216 116.354 201.49 105.366 179.228 98.5479C184.361 75.8708 182.072 57.8094 172.024 52.0271C169.705 50.6854 167.015 50.0073 164.069 50ZM164.032 57.9479V57.9917C165.673 57.9917 166.993 58.3125 168.101 58.9177C172.957 61.7031 175.065 72.2979 173.424 85.926C173.03 89.2802 172.389 92.8167 171.601 96.426C164.601 94.7052 156.974 93.3854 148.946 92.5323C144.133 85.9333 139.139 79.9396 134.107 74.6896C145.716 63.8979 156.617 57.9771 164.04 57.9552L164.032 57.9479ZM92.7927 58.0937C100.172 58.0937 111.124 63.9854 122.761 74.7187C117.759 79.9687 112.772 85.926 108.032 92.525C99.9604 93.3781 92.326 94.6979 85.3333 96.4479C84.5167 92.875 83.9115 89.4187 83.4813 86.0937C81.8042 72.4729 83.875 61.8854 88.6875 59.0635C90.0729 58.4073 91.6042 58.1302 92.7927 58.0937ZM128.391 80.3333C131.708 83.7458 135.026 87.5667 138.307 91.7375C135.099 91.5917 131.818 91.4896 128.5 91.4896C125.146 91.4896 121.828 91.5625 118.583 91.7375C121.792 87.5667 125.109 83.7531 128.391 80.3333ZM128.5 99.4813C133.896 99.4813 139.27 99.7292 144.556 100.159C147.517 104.403 150.404 108.931 153.182 113.722C155.895 118.389 158.359 123.128 160.605 127.911C158.359 132.687 155.895 137.464 153.219 142.13C150.448 146.943 147.582 151.522 144.615 155.766C139.306 156.225 133.925 156.48 128.5 156.48C123.104 156.48 117.73 156.225 112.444 155.802C109.483 151.558 106.596 147.023 103.818 142.24C101.105 137.573 98.6406 132.833 96.3948 128.05C98.6042 123.259 101.105 118.476 103.781 113.802C106.552 108.99 109.418 104.425 112.385 100.181C117.694 99.7146 123.075 99.4667 128.5 99.4667V99.4813ZM101.995 101.333C100.245 104.082 98.4948 106.897 96.8615 109.792C95.2208 112.635 93.6896 115.494 92.2312 118.352C90.299 113.569 88.6583 108.8 87.3021 104.155C91.9687 103.061 96.8906 102.084 101.995 101.333ZM154.932 101.333C160 102.084 164.885 103.01 169.559 104.155C168.247 108.764 166.606 113.503 164.747 118.25C163.289 115.406 161.757 112.541 160.08 109.69C158.44 106.831 156.69 104.046 154.94 101.333H154.932ZM177.267 106.255C180.796 107.349 184.15 108.567 187.293 109.886C199.922 115.282 208.089 122.341 208.089 127.941C208.052 133.541 199.885 140.628 187.256 145.987C184.194 147.3 180.84 148.481 177.376 149.582C175.334 142.597 172.666 135.32 169.355 127.853C172.636 120.437 175.261 113.197 177.267 106.241V106.255ZM79.5948 106.284C81.6219 113.284 84.2979 120.554 87.6156 128.014C84.3344 135.429 81.6948 142.67 79.6969 149.626C76.1677 148.532 72.8135 147.307 69.7073 145.98C57.0781 140.606 48.9115 133.541 48.9115 127.941C48.9115 122.341 57.0781 115.239 69.7073 109.886C72.7698 108.574 76.124 107.393 79.5948 106.284ZM164.747 137.493C166.679 142.283 168.32 147.059 169.676 151.697C165.009 152.842 160.08 153.811 154.976 154.541C156.726 151.806 158.476 148.984 160.117 146.097C161.757 143.253 163.281 140.351 164.747 137.493ZM92.2312 137.639C93.6896 140.497 95.2208 143.348 96.8979 146.206C98.575 149.05 100.289 151.835 102.039 154.541C96.9708 153.797 92.0854 152.864 87.4115 151.726C88.724 147.132 90.3719 142.378 92.224 137.631L92.2312 137.639ZM171.667 159.419C172.483 163.014 173.125 166.477 173.519 169.795C175.196 183.416 173.125 194.003 168.312 196.832C167.241 197.489 165.848 197.766 164.207 197.766C156.828 197.766 145.876 191.881 134.239 181.141C139.241 175.891 144.228 169.941 148.968 163.349C157.04 162.489 164.674 161.169 171.667 159.419ZM85.4063 159.492C92.4062 161.198 100.033 162.518 108.061 163.371C112.874 169.97 117.869 175.964 122.9 181.206C111.27 192.02 100.354 197.941 92.9313 197.941C91.3271 197.904 89.9708 197.576 88.899 196.978C84.0427 194.207 81.9354 183.605 83.576 169.977C83.9698 166.623 84.6188 163.094 85.4063 159.492ZM118.656 164.158C121.865 164.304 125.146 164.406 128.464 164.406C131.818 164.406 135.135 164.333 138.38 164.158C135.172 168.329 131.854 172.143 128.573 175.57C125.255 172.143 121.937 168.329 118.656 164.158Z" fill="#04DBFB"/>
</svg>
            </g>

            <g transform="translate(600, 0)">
                <svg width="256" height="256" title="Redux" viewBox="0 0 256 256" fill="none" xmlns="http://www.w3.org/2000/svg">
<rect width="256" height="256" rx="25" fill="#764ABC"/>
<path d="M158.863 158.079C164.768 157.468 169.247 152.378 169.043 146.27C168.84 140.162 163.75 135.275 157.641 135.275H157.234C150.922 135.479 146.036 140.773 146.239 147.084C146.443 150.138 147.665 152.785 149.497 154.618C142.575 168.259 131.987 178.236 116.106 186.584C105.315 192.285 94.1162 194.321 82.9178 192.896C73.7555 191.674 66.6293 187.602 62.1499 180.883C55.6345 170.906 55.0237 160.115 60.521 149.324C64.3896 141.587 70.4978 135.886 74.3663 133.035C73.5519 130.389 72.3302 125.909 71.7194 122.652C42.1964 144.03 45.2505 172.942 54.2092 186.584C60.9283 196.764 74.5699 203.076 89.6368 203.076C93.7089 203.076 97.7811 202.669 101.853 201.651C127.915 196.561 147.665 181.087 158.863 158.079Z" fill="white"/>
<path d="M194.698 132.832C179.224 114.711 156.42 104.734 130.358 104.734H127.1C125.268 101.069 121.399 98.6259 117.124 98.6259H116.717C110.405 98.8296 105.518 104.123 105.722 110.435C105.925 116.543 111.016 121.43 117.124 121.43H117.531C122.01 121.226 125.879 118.376 127.508 114.507H131.173C146.647 114.507 161.306 118.987 174.541 127.742C184.721 134.461 192.051 143.216 196.123 153.803C199.584 162.355 199.381 170.703 195.716 177.829C190.015 188.62 180.445 194.525 167.822 194.525C159.678 194.525 151.94 192.081 147.868 190.249C145.629 192.285 141.557 195.543 138.706 197.579C147.461 201.651 156.42 203.891 164.971 203.891C184.518 203.891 198.974 193.099 204.471 182.308C210.376 170.499 209.968 150.138 194.698 132.832Z" fill="white"/>
<path d="M91.2657 161.54C91.4693 167.649 96.5594 172.535 102.668 172.535H103.075C109.387 172.332 114.273 167.038 114.07 160.726C113.866 154.618 108.776 149.731 102.668 149.731H102.26C101.853 149.731 101.242 149.731 100.835 149.935C92.4873 136.09 89.026 121.023 90.2476 104.734C91.0621 92.5177 95.1342 81.9302 102.26 73.1751C108.165 65.6417 119.567 61.9767 127.304 61.7731C148.886 61.3659 158.049 88.242 158.659 99.0332C161.306 99.644 165.786 101.069 168.84 102.087C166.397 69.103 146.036 52 126.49 52C108.165 52 91.2657 65.2344 84.5466 84.7807C75.1807 110.842 81.2889 135.886 92.6909 155.636C91.6729 157.061 91.0621 159.301 91.2657 161.54Z" fill="white"/>
</svg>
            </g>

            <g transform="translate(900, 0)">
                <svg width="256" height="256" title="TanStack" viewBox="0 0 256 256" fill="none" xmlns="http://www.w3.org/2000/svg" id="tanstack">
<style>
#tanstack {
    rect {fill: #15191C}

    @media (prefers-color-scheme: light) {
        rect {fill: #F4F2ED}
    }
}
</style>
<rect width="256" height="256" rx="25" fill="#15191C"/>
<path d="M128 213C174.944 213 213 174.944 213 128C213 81.0558 174.944 43 128 43C81.0558 43 43 81.0558 43 128C43 174.944 81.0558 213 128 213Z" fill="url(#icon_3_paint0_linear_6_2)"/>
<mask id="mask0_6_2" style="mask-type:luminance" maskUnits="userSpaceOnUse" x="43" y="43" width="170" height="170">
<path d="M128 213C174.944 213 213 174.944 213 128C213 81.0558 174.944 43 128 43C81.0558 43 43 81.0558 43 128C43 174.944 81.0558 213 128 213Z" fill="white"/>
</mask>
<g mask="url(#mask0_6_2)">
<path d="M65.4555 260.244C98.0958 260.244 124.556 237.303 124.556 209.005C124.556 180.706 98.0958 157.766 65.4555 157.766C32.8152 157.766 6.35498 180.706 6.35498 209.005C6.35498 237.303 32.8152 260.244 65.4555 260.244Z" fill="#015064" stroke="#00CFE2" stroke-width="25"/>
</g>
<mask id="mask1_6_2" style="mask-type:luminance" maskUnits="userSpaceOnUse" x="43" y="43" width="170" height="170">
<path d="M128 213C174.944 213 213 174.944 213 128C213 81.0558 174.944 43 128 43C81.0558 43 43 81.0558 43 128C43 174.944 81.0558 213 128 213Z" fill="white"/>
</mask>
<g mask="url(#mask1_6_2)">
<path d="M190.545 260.244C223.185 260.244 249.645 237.303 249.645 209.005C249.645 180.706 223.185 157.766 190.545 157.766C157.904 157.766 131.444 180.706 131.444 209.005C131.444 237.303 157.904 260.244 190.545 260.244Z" fill="#015064" stroke="#00CFE2" stroke-width="25"/>
</g>
<mask id="mask2_6_2" style="mask-type:luminance" maskUnits="userSpaceOnUse" x="43" y="43" width="170" height="170">
<path d="M128 213C174.944 213 213 174.944 213 128C213 81.0558 174.944 43 128 43C81.0558 43 43 81.0558 43 128C43 174.944 81.0558 213 128 213Z" fill="white"/>
</mask>
<g mask="url(#mask2_6_2)">
<path d="M65.4555 270.714C98.0958 270.714 124.556 247.773 124.556 219.475C124.556 191.176 98.0958 168.236 65.4555 168.236C32.8152 168.236 6.35498 191.176 6.35498 219.475C6.35498 247.773 32.8152 270.714 65.4555 270.714Z" fill="#015064" stroke="#00A8B8" stroke-width="25"/>
</g>
<mask id="mask3_6_2" style="mask-type:luminance" maskUnits="userSpaceOnUse" x="43" y="43" width="170" height="170">
<path d="M128 213C174.944 213 213 174.944 213 128C213 81.0558 174.944 43 128 43C81.0558 43 43 81.0558 43 128C43 174.944 81.0558 213 128 213Z" fill="white"/>
</mask>
<g mask="url(#mask3_6_2)">
<path d="M190.545 270.714C223.185 270.714 249.645 247.773 249.645 219.475C249.645 191.176 223.185 168.236 190.545 168.236C157.904 168.236 131.444 191.176 131.444 219.475C131.444 247.773 157.904 270.714 190.545 270.714Z" fill="#015064" stroke="#00A8B8" stroke-width="25"/>
</g>
<mask id="mask4_6_2" style="mask-type:luminance" maskUnits="userSpaceOnUse" x="43" y="43" width="170" height="170">
<path d="M128 213C174.944 213 213 174.944 213 128C213 81.0558 174.944 43 128 43C81.0558 43 43 81.0558 43 128C43 174.944 81.0558 213 128 213Z" fill="white"/>
</mask>
<g mask="url(#mask4_6_2)">
<path d="M65.4555 280.633C98.0958 280.633 124.556 257.692 124.556 229.394C124.556 201.095 98.0958 178.155 65.4555 178.155C32.8152 178.155 6.35498 201.095 6.35498 229.394C6.35498 257.692 32.8152 280.633 65.4555 280.633Z" fill="#015064" stroke="#007782" stroke-width="25"/>
</g>
<mask id="mask5_6_2" style="mask-type:luminance" maskUnits="userSpaceOnUse" x="43" y="43" width="170" height="170">
<path d="M128 213C174.944 213 213 174.944 213 128C213 81.0558 174.944 43 128 43C81.0558 43 43 81.0558 43 128C43 174.944 81.0558 213 128 213Z" fill="white"/>
</mask>
<g mask="url(#mask5_6_2)">
<path d="M190.545 280.633C223.185 280.633 249.645 257.692 249.645 229.394C249.645 201.095 223.185 178.155 190.545 178.155C157.904 178.155 131.444 201.095 131.444 229.394C131.444 257.692 157.904 280.633 190.545 280.633Z" fill="#015064" stroke="#007782" stroke-width="25"/>
</g>
<mask id="mask6_6_2" style="mask-type:luminance" maskUnits="userSpaceOnUse" x="43" y="43" width="170" height="170">
<path d="M128 213C174.944 213 213 174.944 213 128C213 81.0558 174.944 43 128 43C81.0558 43 43 81.0558 43 128C43 174.944 81.0558 213 128 213Z" fill="white"/>
</mask>
<g mask="url(#mask6_6_2)">
<path fill-rule="evenodd" clip-rule="evenodd" d="M100.845 97.1248C103.245 107.286 105.124 117.152 106.483 126.725C107.842 136.297 108.125 146.916 107.332 158.581L121.652 155.451C117.175 139.295 114.407 128.68 113.346 123.607C112.286 118.533 110.101 109.483 106.793 96.4569L100.845 97.1248Z" fill="url(#icon_3_paint1_linear_6_2)" stroke="#6E3A00" stroke-width="3"/>
<path fill-rule="evenodd" clip-rule="evenodd" d="M100.826 91.2491C100.826 91.2491 97.1981 85.3148 90.6515 83.4149C86.2874 82.148 81.302 83.3371 75.6953 86.982C80.1451 90.733 83.9037 92.8778 86.9711 93.4163C91.5725 94.2241 100.826 91.2497 100.826 91.2497L100.826 91.2491Z" fill="url(#icon_3_paint2_linear_6_2)" stroke="#2F8A00" stroke-width="2.5"/>
<path fill-rule="evenodd" clip-rule="evenodd" d="M100.823 91.4144C100.823 91.4144 87.8523 89.5354 78.3914 96.5166C72.084 101.171 69.5389 110.339 70.7562 124.021C78.726 116.108 84.4329 110.252 87.877 106.451C93.0434 100.75 100.823 91.4144 100.823 91.4144Z" fill="url(#icon_3_paint3_linear_6_2)" stroke="#2F8A00" stroke-width="3"/>
<path fill-rule="evenodd" clip-rule="evenodd" d="M100.826 91.2491C100.39 85.2604 102.105 80.7949 105.97 77.8526C109.835 74.9097 113.898 73.3642 118.159 73.2159C116.715 79.1228 114.576 83.1603 111.741 85.3284C108.906 87.4966 105.267 89.4702 100.826 91.2491Z" fill="url(#icon_3_paint4_linear_6_2)" stroke="#2F8A00" stroke-width="2.5"/>
<path fill-rule="evenodd" clip-rule="evenodd" d="M100.823 91.4144C109.194 82.8838 117.85 79.9238 126.79 82.5344C135.73 85.1449 140.855 90.3624 142.165 98.187C132.569 97.0116 125.674 96.1511 121.48 95.6054C117.286 95.0593 110.4 93.6623 100.823 91.4144Z" fill="url(#icon_3_paint5_linear_6_2)" stroke="#2F8A00" stroke-width="3"/>
<path fill-rule="evenodd" clip-rule="evenodd" d="M100.823 91.4144C110.474 88.9976 118.61 90.7168 125.232 96.572C131.854 102.427 135.932 109.624 137.466 118.162C126.586 115.885 118.72 112.291 113.866 107.382C109.023 102.484 104.656 97.1376 100.823 91.4144Z" fill="url(#icon_3_paint6_linear_6_2)" stroke="#2F8A00" stroke-width="3"/>
<path fill-rule="evenodd" clip-rule="evenodd" d="M100.823 91.4144C91.8397 95.5184 86.6068 101.701 85.1239 109.961C83.641 118.222 84.741 127.285 88.424 137.152C95.4754 125.861 99.485 117.678 100.453 112.602C101.421 107.526 101.544 100.464 100.823 91.4144Z" fill="url(#icon_3_paint7_linear_6_2)" stroke="#2F8A00" stroke-width="3"/>
<path d="M101.214 90.7975C97.3982 96.8567 94.7972 102.376 93.4115 107.355C92.0258 112.334 91.1592 116.486 90.8116 119.813" stroke="#2F8A00" stroke-width="2" stroke-linecap="round"/>
<path d="M100.809 91.7363C94.2017 92.4429 89.0192 94.6208 85.262 98.2701C81.5042 101.919 78.7915 105.471 77.124 108.926M103.353 89.0953C111.351 86.9675 117.397 86.2923 121.491 87.0697C125.585 87.8472 128.877 89.1798 131.366 91.0676M101.222 90.5609C106.812 93.07 111.789 95.8103 116.151 98.7818C120.514 101.753 123.787 104.565 125.972 107.218" stroke="#2F8A00" stroke-width="2" stroke-linecap="round"/>
<path d="M155.795 152.703L149.409 157.816M133.384 146.465L127.236 154.289M129.214 140.453L143.866 156.934" stroke="#830305" stroke-width="3" stroke-linecap="round" stroke-linejoin="bevel"/>
<path fill-rule="evenodd" clip-rule="evenodd" d="M139.463 147.426L156.31 150.094C157.31 150.444 157.73 151.133 157.567 152.162C157.404 153.19 156.784 153.77 155.707 153.902L137.427 151.006L127.374 140.946C126.811 140.119 126.842 139.379 127.468 138.728C128.407 137.75 128.877 137.939 129.815 138.317L139.463 147.426L139.463 147.426Z" fill="url(#icon_3_paint8_linear_6_2)"/>
<path fill-rule="evenodd" clip-rule="evenodd" d="M153.999 150.871L154.129 149.745ZM148.309 150.112L148.439 148.985ZM142.616 149.189L142.749 148.13ZM136.015 145.464L136.72 144.775ZM132.347 142.07L133.052 141.382Z" fill="#D8D8D8"/>
<path d="M153.999 150.871L154.129 149.745M148.309 150.112L148.439 148.985M142.616 149.189L142.749 148.13M136.015 145.464L136.72 144.775M132.347 142.07L133.052 141.382" stroke="white" stroke-width="2.5" stroke-linecap="round" stroke-linejoin="bevel"/>
</g>
<mask id="mask7_6_2" style="mask-type:luminance" maskUnits="userSpaceOnUse" x="43" y="43" width="170" height="170">
<path d="M128 213C174.944 213 213 174.944 213 128C213 81.0558 174.944 43 128 43C81.0558 43 43 81.0558 43 128C43 174.944 81.0558 213 128 213Z" fill="white"/>
</mask>
<g mask="url(#mask7_6_2)">
<path d="M128 328.721C168.477 328.721 201.29 289.679 201.29 241.517C201.29 193.355 168.477 154.313 128 154.313C87.523 154.313 54.7099 193.355 54.7099 241.517C54.7099 289.679 87.523 328.721 128 328.721Z" fill="url(#icon_3_paint9_linear_6_2)"/>
</g>
<mask id="mask8_6_2" style="mask-type:luminance" maskUnits="userSpaceOnUse" x="43" y="43" width="170" height="170">
<path d="M128 213C174.944 213 213 174.944 213 128C213 81.0558 174.944 43 128 43C81.0558 43 43 81.0558 43 128C43 174.944 81.0558 213 128 213Z" fill="white"/>
</mask>
<g mask="url(#mask8_6_2)">
<path d="M128 325.139C166.499 325.139 197.708 287.7 197.708 241.517C197.708 195.334 166.499 157.895 128 157.895C89.5011 157.895 58.2917 195.334 58.2917 241.517C58.2917 287.7 89.5011 325.139 128 325.139Z" stroke="#6DA300" stroke-opacity="0.502" stroke-width="4"/>
</g>
<mask id="mask9_6_2" style="mask-type:luminance" maskUnits="userSpaceOnUse" x="43" y="43" width="170" height="170">
<path d="M128 213C174.944 213 213 174.944 213 128C213 81.0558 174.944 43 128 43C81.0558 43 43 81.0558 43 128C43 174.944 81.0558 213 128 213Z" fill="white"/>
</mask>
<g mask="url(#mask9_6_2)">
<path d="M196.606 96.7278C213.877 96.7278 227.878 82.7267 227.878 65.4555C227.878 48.1843 213.877 34.1832 196.606 34.1832C179.335 34.1832 165.334 48.1843 165.334 65.4555C165.334 82.7267 179.335 96.7278 196.606 96.7278Z" fill="url(#icon_3_paint10_linear_6_2)"/>
<path d="M196.606 94.6613C212.736 94.6613 225.812 81.5854 225.812 65.4555C225.812 49.3255 212.736 36.2496 196.606 36.2496C180.476 36.2496 167.4 49.3255 167.4 65.4555C167.4 81.5854 180.476 94.6613 196.606 94.6613Z" stroke="#FFC900" stroke-opacity="0.529" stroke-width="4"/>
<path d="M158.446 65.3177H150.18" stroke="url(#icon_3_paint11_linear_6_2)" stroke-width="4" stroke-linecap="round" stroke-linejoin="bevel"/>
<path d="M159.41 56.0875L152.109 54.5721" stroke="url(#icon_3_paint12_linear_6_2)" stroke-width="4" stroke-linecap="round" stroke-linejoin="bevel"/>
<path d="M159.548 74.4101L151.557 76.6143" stroke="url(#icon_3_paint13_linear_6_2)" stroke-width="4" stroke-linecap="round" stroke-linejoin="bevel"/>
<path d="M162.579 82.9514L155.966 86.5333" stroke="url(#icon_3_paint14_linear_6_2)" stroke-width="4" stroke-linecap="round" stroke-linejoin="bevel"/>
<path d="M168.64 90.3906L163.13 95.6256" stroke="url(#icon_3_paint15_linear_6_2)" stroke-width="4" stroke-linecap="round" stroke-linejoin="bevel"/>
<path d="M176.182 96.7278L172.371 103.023" stroke="url(#icon_3_paint16_linear_6_2)" stroke-width="4" stroke-linecap="round" stroke-linejoin="bevel"/>
<path d="M185.309 101.274L183.243 108.024" stroke="url(#icon_3_paint17_linear_6_2)" stroke-width="4" stroke-linecap="round" stroke-linejoin="bevel"/>
<path d="M196.331 103.754L196.468 110.504" stroke="url(#icon_3_paint18_linear_6_2)" stroke-width="4" stroke-linecap="round" stroke-linejoin="bevel"/>
</g>
<path d="M127.724 211.76C173.984 211.76 211.485 174.259 211.485 128C211.485 81.7406 173.984 44.2399 127.724 44.2399C81.465 44.2399 43.9643 81.7406 43.9643 128C43.9643 174.259 81.465 211.76 127.724 211.76Z" stroke="black" stroke-width="6"/>



















</svg>

            </g>

            <g transform="translate(1200, 0)">
                <svg width="256" height="256" title="React Hook Form" viewBox="0 0 256 256" fill="none" xmlns="http://www.w3.org/2000/svg">
<rect width="256" height="256" rx="25" fill="#EC5990"/>
<path fill-rule="evenodd" clip-rule="evenodd" d="M174.514 56.569H144.397C142.189 49.6776 135.766 45 128.509 45C121.253 45 114.829 49.6776 112.621 56.569H82.4847C70.6189 56.569 61 66.1585 61 77.9877V189.581C61 201.41 70.6189 211 82.4847 211H174.515C186.381 211 196 201.41 196 189.581V77.9877C196 66.1585 186.38 56.569 174.514 56.569ZM114.124 60.4629C115.06 60.4832 115.88 59.8383 116.076 58.9244C117.355 53.0741 122.55 48.9011 128.557 48.9011C134.564 48.9011 139.759 53.0727 141.038 58.9244C141.234 59.8383 142.054 60.4832 142.99 60.4629H153.498V73.2176C153.498 76.4435 150.874 79.0592 147.639 79.0592H109.455C106.219 79.0592 103.596 76.4435 103.596 73.2176V60.4629H114.124ZM192.092 189.581C192.092 199.26 184.222 207.106 174.514 207.106H82.4833C72.775 207.106 64.9053 199.26 64.9053 189.581V77.9877C64.9053 68.3086 72.775 60.4629 82.4833 60.4629H99.6904V73.2176C99.6904 78.595 104.063 82.9531 109.456 82.9531H147.542C152.935 82.9531 157.308 78.5936 157.308 73.2176V60.4629H174.515C184.224 60.4629 192.093 68.3086 192.093 77.9877L192.092 189.581Z" fill="white"/>
<path d="M170.685 120.203H136.31C136.054 120.203 135.801 120.253 135.564 120.35C135.327 120.448 135.112 120.591 134.931 120.772C134.75 120.953 134.606 121.168 134.507 121.404C134.409 121.641 134.358 121.895 134.357 122.151C134.358 122.408 134.409 122.661 134.507 122.898C134.606 123.134 134.75 123.349 134.931 123.53C135.112 123.711 135.327 123.854 135.564 123.952C135.801 124.049 136.054 124.099 136.31 124.099H170.685C170.941 124.099 171.194 124.049 171.431 123.952C171.668 123.854 171.883 123.711 172.064 123.53C172.245 123.349 172.389 123.134 172.488 122.898C172.586 122.661 172.637 122.408 172.638 122.151C172.637 121.895 172.586 121.641 172.488 121.404C172.389 121.168 172.245 120.953 172.064 120.772C171.883 120.591 171.668 120.448 171.431 120.35C171.194 120.253 170.941 120.203 170.685 120.203Z" fill="white"/>
<path d="M119.905 120.203H85.5299C85.2741 120.203 85.0205 120.253 84.7839 120.35C84.5473 120.448 84.3323 120.591 84.151 120.772C83.9696 120.953 83.8256 121.168 83.7272 121.404C83.6287 121.641 83.5778 121.895 83.5773 122.151C83.5778 122.408 83.6287 122.661 83.7272 122.898C83.8256 123.134 83.9696 123.349 84.151 123.53C84.3323 123.711 84.5473 123.854 84.7839 123.952C85.0205 124.049 85.2741 124.099 85.5299 124.099H119.905C120.161 124.099 120.414 124.049 120.651 123.952C120.888 123.854 121.103 123.711 121.284 123.53C121.465 123.349 121.609 123.134 121.708 122.898C121.806 122.661 121.857 122.408 121.858 122.151C121.857 121.895 121.806 121.641 121.708 121.404C121.609 121.168 121.465 120.953 121.284 120.772C121.103 120.591 120.888 120.448 120.651 120.35C120.414 120.253 120.161 120.203 119.905 120.203Z" fill="white"/>
<path fill-rule="evenodd" clip-rule="evenodd" d="M170.783 167.325H136.311C136.055 167.325 135.802 167.375 135.565 167.472C135.329 167.57 135.114 167.713 134.932 167.894C134.751 168.075 134.607 168.29 134.509 168.526C134.41 168.763 134.359 169.017 134.359 169.273C134.359 169.529 134.41 169.783 134.509 170.02C134.607 170.256 134.751 170.471 134.932 170.652C135.114 170.833 135.329 170.976 135.565 171.074C135.802 171.171 136.055 171.221 136.311 171.221H170.783C171.039 171.221 171.292 171.171 171.529 171.074C171.766 170.976 171.981 170.833 172.162 170.652C172.343 170.471 172.487 170.256 172.586 170.02C172.684 169.783 172.735 169.529 172.736 169.273C172.735 169.017 172.684 168.763 172.586 168.526C172.487 168.29 172.343 168.075 172.162 167.894C171.981 167.713 171.766 167.57 171.529 167.472C171.292 167.375 171.039 167.325 170.783 167.325ZM120.002 167.325H85.5298C85.274 167.325 85.0205 167.375 84.7839 167.472C84.5473 167.57 84.3323 167.713 84.151 167.894C83.9696 168.075 83.8256 168.29 83.7272 168.526C83.6287 168.763 83.5778 169.017 83.5773 169.273C83.5778 169.529 83.6287 169.783 83.7272 170.02C83.8256 170.256 83.9696 170.471 84.151 170.652C84.3323 170.833 84.5473 170.976 84.7839 171.074C85.0205 171.171 85.274 171.221 85.5298 171.221H120.002C120.258 171.221 120.511 171.171 120.748 171.074C120.984 170.976 121.199 170.833 121.381 170.652C121.562 170.471 121.706 170.256 121.804 170.02C121.903 169.783 121.954 169.529 121.954 169.273C121.954 169.017 121.903 168.763 121.804 168.526C121.706 168.29 121.562 168.075 121.381 167.894C121.199 167.713 120.984 167.57 120.748 167.472C120.511 167.375 120.258 167.325 120.002 167.325Z" fill="white"/>
</svg>
            </g>

            <g transform="translate(0, 300)">
                <svg width="256" height="256" title="React Router" viewBox="0 0 256 256" fill="none" xmlns="http://www.w3.org/2000/svg" id="reactrouter">
<style>
#reactrouter {
    rect {fill: #15191C}
    path.rr {fill: #F4F2ED}

    @media (prefers-color-scheme: light) {
        rect {fill: #F4F2ED}
        path.rr {fill: #15191C}
    }
}
</style>
<rect width="256" height="256" rx="25" fill="#15191C"/>
<path d="M175.136 111.035C170.273 109.506 167.761 110.022 162.661 109.464C154.775 108.604 151.634 105.522 150.301 97.5909C149.555 93.1633 150.436 86.6806 148.532 82.6671C144.891 75.0143 136.371 71.5821 127.811 73.5411C120.585 75.1975 114.571 82.4202 114.238 89.8341C113.857 98.2991 118.681 105.522 126.963 108.014C130.897 109.201 135.078 109.798 139.187 110.101C146.723 110.65 147.302 114.839 149.341 118.288C150.626 120.462 151.872 122.604 151.872 129.086C151.872 135.568 150.618 137.71 149.341 139.884C147.302 143.324 144.788 145.578 137.252 146.135C133.142 146.438 128.954 147.035 125.027 148.222C116.745 150.722 111.922 157.937 112.303 166.402C112.636 173.816 118.649 181.039 125.876 182.695C134.435 184.662 142.955 181.222 146.596 173.569C148.508 169.555 149.555 165.008 150.301 160.581C151.642 152.649 154.783 149.567 162.661 148.707C167.761 148.15 173.04 148.707 177.82 145.992C182.871 142.301 187.384 136.762 187.384 129.086C187.384 121.409 182.521 113.36 175.136 111.035Z" fill="#F44250"/>
<path d="M94.232 147.076C84.2922 147.076 76.1842 138.953 76.1842 128.995C76.1842 119.036 84.2922 110.913 94.232 110.913C104.172 110.913 112.28 119.036 112.28 128.995C112.28 138.945 104.164 147.076 94.232 147.076Z" class="rr" fill="#F4F2ED"/>
<path d="M60.9841 183.822C51.0602 183.798 42.9762 175.643 43.0001 165.677C43.024 155.727 51.1638 147.628 61.1115 147.659C71.0433 147.683 79.1273 155.838 79.0955 165.805C79.0716 175.747 70.9318 183.846 60.9841 183.822Z" class="rr" fill="#F4F2ED"/>
<path d="M195.088 183.822C185.132 183.877 176.961 175.811 176.905 165.876C176.849 155.902 184.901 147.716 194.817 147.66C204.772 147.604 212.944 155.671 213 165.605C213.055 175.571 205.003 183.766 195.088 183.822Z" class="rr" fill="#F4F2ED"/>
</svg>
            </g>

            <g transform="translate(300, 300)">
                <svg width="256" height="256" title="Zod" viewBox="0 0 256 256" fill="none" xmlns="http://www.w3.org/2000/svg" id="zod">
<style>
#zod {
    rect {fill: #15191C}

    @media (prefers-color-scheme: light) {
        rect {fill: #F4F2ED}
    }
}
</style>
<rect width="256" height="256" rx="25" fill="#15191C"/>
<path d="M81.8444 67.6958H176.482L204.213 96.6479L125.749 184.532L52.7757 96.6479L81.8444 67.6958Z" fill="#18253F"/>
<path d="M144.769 163.774H107.676L90.9229 143.265L138.398 143.263L138.399 140.353H165.537L144.769 163.774Z" fill="#274D82"/>
<path d="M196.25 88.391L93.9014 147.482L80.55 130.779L159.785 85.0312L158.33 82.5097L179.435 70.325L196.25 88.391ZM141.414 67.725L64.5625 112.095L52.6104 97.175L104.065 67.4674L141.414 67.725Z" fill="#274D82"/>
<path d="M180.181 59H78.2431L41 96.0521L125.556 197.874L216 96.4007L180.181 59ZM176.457 67.7236L204.124 96.6125L125.79 184.5L52.8056 96.6125L81.8437 67.7236H176.457Z" fill="#3068B7"/>
</svg>
            </g>

            <g transform="translate(600, 300)">
                <svg width="256" height="256" title="HTML" viewBox="0 0 256 256" fill="none" xmlns="http://www.w3.org/2000/svg">
<rect width="256" height="256" rx="25" fill="#E34F26"/>
<path d="M53 42H203L189.357 196.021L127.836 213.429L66.6643 196.014L53 42ZM103.221 111.643L101.564 92.2286L173.414 92.25L175.057 73.5214L80.9429 73.5L85.9286 130.714H151.114L148.786 155.186L128 160.929L106.893 155.143L105.55 140.071H86.9143L89.2714 169.864L128 180.221L166.421 169.914L171.736 111.65H103.221V111.643Z" fill="white"/>
</svg>
            </g>

            <g transform="translate(900, 300)">
                <svg width="256" height="256" title="JavaScript" viewBox="0 0 256 256" fill="none" xmlns="http://www.w3.org/2000/svg">
<rect width="256" height="256" rx="25" fill="#F7DF1E"/>
<path d="M67.3117 213.932L86.9027 202.076C90.6821 208.777 94.1202 214.447 102.367 214.447C110.272 214.447 115.256 211.355 115.256 199.327V117.529H139.314V199.667C139.314 224.584 124.708 235.926 103.398 235.926C84.1533 235.926 72.9819 225.959 67.3113 213.93" fill="black"/>
<path d="M152.381 211.354L171.969 200.013C177.126 208.434 183.828 214.62 195.684 214.62C205.653 214.62 212.009 209.636 212.009 202.762C212.009 194.514 205.479 191.592 194.481 186.782L188.468 184.203C171.111 176.815 159.597 167.535 159.597 147.945C159.597 129.901 173.345 116.153 194.826 116.153C210.12 116.153 221.118 121.481 229.022 135.4L210.291 147.429C206.166 140.04 201.7 137.119 194.826 137.119C187.78 137.119 183.312 141.587 183.312 147.429C183.312 154.646 187.78 157.568 198.09 162.037L204.104 164.614C224.553 173.379 236.067 182.313 236.067 202.418C236.067 224.072 219.055 235.928 196.2 235.928C173.861 235.928 159.426 225.274 152.381 211.354" fill="black"/>
</svg>
            </g>

            <g transform="translate(1200, 300)">
                <svg width="256" height="256" title="TypeScript" viewBox="0 0 256 256" fill="none" xmlns="http://www.w3.org/2000/svg">
<rect width="256" height="256" rx="25" fill="#3178C6"/>
<path d="M56.6112 128.849L56.5299 139.333H73.1902H89.8505L89.8505 186.673V234.012H101.635H113.419V186.673L113.419 139.333H130.079H146.739V129.052C146.739 123.363 146.618 118.609 146.455 118.487C146.333 118.325 126.056 118.243 101.472 118.284L56.7331 118.406L56.6112 128.849Z" fill="white"/>
<path d="M206.567 118.108C213.068 119.734 218.026 122.619 222.577 127.332C224.934 129.852 228.428 134.444 228.713 135.541C228.794 135.866 217.66 143.343 210.915 147.528C210.671 147.691 209.695 146.634 208.598 145.009C205.307 140.214 201.853 138.141 196.57 137.776C188.809 137.247 183.811 141.311 183.852 148.097C183.852 150.088 184.136 151.266 184.949 152.892C186.655 156.427 189.825 158.54 199.781 162.847C218.107 170.731 225.949 175.932 230.826 183.327C236.271 191.576 237.49 204.742 233.792 214.535C229.729 225.181 219.651 232.414 205.469 234.812C201.081 235.584 190.678 235.462 185.965 234.609C175.684 232.78 165.932 227.701 159.918 221.037C157.561 218.436 152.969 211.65 153.254 211.162C153.375 211 154.432 210.35 155.61 209.659C156.748 209.009 161.056 206.53 165.119 204.173L172.474 199.906L174.018 202.182C176.172 205.473 180.885 209.984 183.73 211.487C191.897 215.795 203.113 215.185 208.639 210.228C210.996 208.074 211.971 205.839 211.971 202.548C211.971 199.581 211.605 198.281 210.061 196.046C208.07 193.202 204.007 190.804 192.466 185.806C179.26 180.117 173.571 176.582 168.37 170.974C165.363 167.724 162.518 162.522 161.34 158.174C160.365 154.558 160.121 145.496 160.893 141.839C163.615 129.08 173.246 120.181 187.143 117.539C191.654 116.686 202.137 117.011 206.567 118.108Z" fill="white"/>
</svg>
            </g>

            <g transform="translate(0, 600)">
                <svg width="256" height="256" title="Tailwind CSS" viewBox="0 0 256 256" fill="none" xmlns="http://www.w3.org/2000/svg" id="tailwindcss">
<style>
#tailwindcss {
    rect {fill: #15191C}

    @media (prefers-color-scheme: light) {
        rect {fill: #F4F2ED}
    }
}
</style>
<rect width="256" height="256" rx="25" fill="#15191C"/>
<path d="M128.5 75C105.167 75 90.5833 86.6667 84.75 110C93.5 98.3333 103.708 93.9583 115.375 96.875C122.032 98.5375 126.786 103.365 132.058 108.717C140.641 117.423 150.565 127.5 172.25 127.5C195.583 127.5 210.167 115.833 216 92.5C207.25 104.167 197.042 108.542 185.375 105.625C178.718 103.962 173.964 99.1354 168.692 93.7833C160.117 85.0771 150.193 75 128.5 75ZM84.75 127.5C61.4167 127.5 46.8333 139.167 41 162.5C49.75 150.833 59.9583 146.458 71.625 149.375C78.2823 151.038 83.0365 155.865 88.3083 161.217C96.8906 169.923 106.815 180 128.5 180C151.833 180 166.417 168.333 172.25 145C163.5 156.667 153.292 161.042 141.625 158.125C134.968 156.463 130.214 151.635 124.942 146.283C116.367 137.577 106.443 127.5 84.75 127.5Z" fill="#06B6D4"/>
</svg>
            </g>

            <g transform="translate(300, 600)">
                <svg width="256" height="256" title="CSS 3" viewBox="0 0 256 256" fill="none" xmlns="http://www.w3.org/2000/svg">
<rect width="256" height="256" rx="25" fill="#1572B6"/>
<path d="M53 42H203L189.357 196.021L127.836 213.429L66.6571 196.014L53 42ZM175.071 73.5214L80.9286 73.5L82.45 92.2286L154.771 92.2429L152.95 111.643H105.521L107.236 130.021H151.393L148.779 155.186L127.993 160.929L106.879 155.143L105.536 140.071H86.8929L88.9643 167.607L128 179.771L166.379 168.843L175.071 73.5214Z" fill="white"/>
</svg>
            </g>

            <g transform="translate(600, 600)">
                <svg width="256" height="256" title="Sass" viewBox="0 0 256 256" fill="none" xmlns="http://www.w3.org/2000/svg">
<rect width="256" height="256" rx="25" fill="#CC6699"/>
<path d="M129.483 143.86C126.723 145.129 123.699 146.782 117.644 150.104C115.348 151.396 112.949 152.687 110.717 153.904C110.562 153.749 110.401 153.554 110.246 153.393C98.2687 140.595 76.1158 131.556 77.057 114.367C77.4071 108.106 79.5593 91.6692 119.601 71.7087C152.555 55.4671 178.776 59.9665 183.305 69.9468C189.813 84.174 169.25 110.648 135.217 114.488C131.45 115.252 127.56 115.159 123.834 114.218C120.108 113.276 116.641 111.509 113.69 109.047C111.887 107.09 111.618 106.975 110.952 107.366C109.856 107.939 110.562 109.713 110.952 110.729C112.25 113.079 114.006 115.145 116.117 116.805C118.227 118.465 120.649 119.685 123.239 120.393C136.632 123.288 150.596 121.905 163.16 116.439C183.787 108.456 199.89 86.263 195.173 67.6569C190.438 48.7926 159.126 42.5714 129.501 53.0969C110.948 59.349 93.8067 69.191 79.0542 82.062C62.7323 97.3279 60.1497 110.597 61.2057 116.152C65.005 135.877 92.1967 148.716 103.101 158.225C102.527 158.541 102.045 158.799 101.615 159.046C96.1739 161.749 75.4329 172.59 70.262 184.057C64.3909 197.05 71.2032 206.365 75.7026 207.616C82.4833 209.24 89.6019 208.706 96.0644 206.088C102.527 203.471 108.011 198.901 111.75 193.015C114.925 188.135 116.875 182.561 117.433 176.765C117.992 170.97 117.143 165.126 114.958 159.729C116.247 158.701 117.622 157.785 119.067 156.991C121.845 155.35 124.49 153.732 126.838 152.48C134.875 148.716 143.645 146.778 152.52 146.804C171.149 148.997 174.828 160.618 174.122 165.514C173.792 167.251 173.093 168.897 172.074 170.341C171.054 171.785 169.737 172.995 168.211 173.887C166.919 174.708 166.489 174.983 166.604 175.569C166.759 176.43 167.384 176.389 168.48 176.234C171.279 175.35 173.745 173.639 175.554 171.328C177.363 169.016 178.43 166.211 178.616 163.281C179.19 151.803 168.245 139.212 148.87 139.326C143.069 139.336 137.325 140.481 131.963 142.695C131.102 143.051 130.266 143.434 129.455 143.843L129.483 143.86ZM101.792 188.849C95.6057 195.581 86.9971 198.123 83.2782 195.971C79.2609 193.675 80.8506 183.718 88.4434 176.596C92.9403 172.544 97.8008 168.915 102.963 165.755C103.864 165.181 105.196 164.423 106.797 163.459C107.072 163.304 107.227 163.224 107.227 163.224L108.169 162.65C109.523 167.19 109.646 172.009 108.526 176.612C107.405 181.216 105.082 185.439 101.792 188.849Z" fill="white"/>
</svg>
            </g>

            <g transform="translate(900, 600)">
                <svg width="256" height="256" title="GSAP" viewBox="0 0 256 256" fill="none" xmlns="http://www.w3.org/2000/svg" id="gsap">
<style>
#gsap {
    rect {fill: #15191C}

    @media (prefers-color-scheme: light) {
        rect {fill: #F4F2ED}
    }
}
</style>
<rect width="256" height="256" rx="25" fill="#15191C"/>
<path d="M59.8902 115.609C54.3068 118.235 39.5287 130.058 36.6825 133.561C33.7265 137.064 32.851 131.591 35.9161 122.505C38.3238 115.171 44.4549 105.209 54.7448 96.6702C60.7652 91.7441 74.0115 84.6289 82.1118 80.4685C83.7542 79.5925 104.991 70.6162 123.93 66.128C125.572 65.69 121.959 68.8646 121.412 70.6162C118.565 78.9358 61.7503 114.623 61.7503 114.623L59.8902 115.609ZM139.912 215.992C140.897 221.903 140.022 222.341 133.892 223.108C127.761 223.874 123.273 221.575 121.631 220.043C119.989 218.509 119.661 215.116 121.303 212.051C122.288 210.081 123.273 209.424 123.821 207.015C124.368 204.717 124.806 204.169 125.244 203.294C125.681 202.527 125.791 201.76 125.9 196.397C126.01 191.033 125.9 180.961 126.448 176.693C126.996 172.314 145.934 178.663 145.934 178.663C145.934 178.663 141.445 189.829 140.241 192.565C139.037 195.302 139.147 200.557 139.147 201.651C139.147 202.746 138.709 204.935 138.38 205.045C138.052 205.154 139.475 208 138.818 209.642C138.38 211.175 139.803 215.116 139.912 215.992ZM147.137 48.6128C146.48 44.453 147.137 36.242 148.013 34.929C150.75 31.2067 165.2 30.7692 168.265 35.1477C169.579 37.118 169.469 41.7158 169.25 44.6717C169.032 47.6271 168.265 53.9765 168.156 56.0569C168.047 57.5897 152.173 59.9974 148.67 55.8376C147.684 54.7434 147.137 48.6128 147.137 48.6128ZM179.321 205.373C185.999 210.19 191.144 211.066 194.538 212.817C197.931 214.569 197.055 217.963 191.363 218.948C186.765 219.823 179.54 218.072 174.724 218.072C169.907 218.072 159.179 218.619 156.332 216.649C153.049 214.35 154.471 210.081 154.471 210.081C155.347 207.673 157.536 202.308 156.88 197.93C156.223 193.551 155.347 191.143 153.705 187.092C152.063 183.042 150.859 173.08 152.392 172.533C153.925 171.985 153.486 172.533 155.457 172.97C157.427 173.408 159.617 174.065 163.886 174.065C168.156 174.065 172.863 173.408 174.505 173.08C176.147 172.751 177.46 172.423 176.913 175.816C176.366 179.21 174.724 185.559 174.614 190.485C174.505 195.412 174.505 201.104 174.833 202.089C175.161 203.074 177.57 204.169 179.321 205.373Z" fill="#010101"/>
<path d="M155.895 59.56C143.854 69.96 120.536 72.8058 85.9442 86.1612C77.077 89.5546 53.4317 99.7353 47.7392 110.354C66.8962 99.2979 74.012 114.514 75.5442 130.168C76.9668 144.837 84.3018 152.5 103.131 152.062C122.507 151.624 128.418 162.899 133.782 176.145C144.181 125.46 160.821 115.609 171.548 106.961C194.319 88.4598 166.294 55.8377 155.895 59.56Z" fill="#8AC640"/>
<path d="M155.895 59.56C126.995 69.6311 98.4231 72.149 64.8164 92.8389C56.8251 97.7651 39.9667 108.93 36.6824 130.278C48.9425 116.703 77.2952 99.6262 111.997 88.7887C129.512 83.3149 142.321 79.7027 157.865 73.6818C156.771 66.6752 156.771 63.9385 155.895 59.56Z" fill="#8AC640"/>
<path d="M192.786 119.549C192.786 119.549 190.706 126.665 186.546 128.964C186.546 128.964 183.481 130.059 177.351 126.665C175.6 125.68 174.286 122.287 174.395 121.192C174.505 118.564 176.147 117.36 176.147 117.36C176.147 117.36 177.899 114.404 179.978 114.514C182.059 114.623 185.562 114.951 186.656 113.966C187.641 112.871 193.005 115.936 192.786 119.549ZM148.122 50.6927C148.122 50.6927 147.685 56.2762 146.919 59.7787C146.809 60.436 143.525 60.7638 141.116 61.7495C145.714 74.8857 173.41 74.776 177.023 68.3176C175.271 67.1137 171.768 65.2526 170.126 64.5958C168.484 63.9385 168.594 64.0482 168.484 60.9831C168.375 57.9176 168.156 52.2255 167.936 50.6927C167.718 49.16 150.749 49.16 148.122 50.6927Z" fill="#010101"/>
<path d="M149.217 50.6927C149.217 50.6927 149.217 53.8674 148.889 56.9324C148.78 58.3556 148.67 59.2311 148.451 60.3258C148.342 60.9831 152.173 63.6096 153.268 69.4118C158.522 81.1248 170.674 75.3231 175.709 69.7402C173.958 68.5358 171.111 66.8939 167.828 65.5804C166.185 64.9231 166.952 63.5005 166.843 60.4355C166.733 57.3705 166.295 52.8817 166.076 51.2399C165.856 49.598 151.845 49.16 149.217 50.6927Z" fill="#F0EFEF"/>
<path d="M148.122 50.6927C148.122 50.6927 148.013 52.6635 147.685 54.9622C149.108 56.3848 150.969 58.3556 152.392 59.56C153.378 60.436 155.785 60.3264 157.975 60.3264C159.946 60.3264 161.697 60.5451 162.463 60.1076C164.216 59.2316 166.733 57.0426 168.156 55.4002C168.047 53.4299 167.937 51.5688 167.828 50.6927C167.718 49.16 150.749 49.16 148.122 50.6927Z" fill="#010101"/>
<path d="M158.084 59.0123C156.77 59.0123 155.238 58.9032 154.034 58.684C153.486 58.5749 152.939 58.2465 152.501 58.0272C151.735 57.4795 150.968 56.8233 150.093 56.166C148.341 54.8525 148.232 54.0861 148.232 53.7583C148.998 46.8613 148.013 41.0596 148.013 41.0596C148.013 41.0596 147.246 38.1037 151.406 37.3373C155.566 36.5709 158.084 36.4618 158.084 36.4618C158.084 36.4618 160.711 36.4618 164.762 37.3373C168.921 38.1037 168.155 41.0596 168.155 41.0596C168.155 41.0596 167.17 46.8613 167.936 53.7583C167.936 54.0861 167.827 54.8525 166.075 56.166C164.542 57.2608 163.338 58.4647 162.135 58.684C160.93 58.9032 159.397 59.0123 158.084 59.0123Z" fill="#010101"/>
<path d="M158.084 33.6155C150.86 33.6155 149.436 35.5858 147.356 37.7753C146.919 38.3224 147.246 41.6068 148.013 48.6128H148.998C148.998 48.6128 148.341 46.642 148.451 44.3434C148.56 42.0448 148.998 42.1544 148.67 41.6068C148.232 40.9495 147.356 39.8547 149.327 38.7605C151.297 37.6657 154.362 39.636 158.084 39.7456C161.806 39.636 164.981 37.6657 166.951 38.7605C168.921 39.8547 168.046 40.9495 167.608 41.6068C167.17 42.2635 167.718 42.0442 167.827 44.3434C167.936 46.642 167.279 48.6128 167.279 48.6128H168.265C168.921 41.6068 169.359 38.5417 169.031 37.9941C167.17 35.5858 165.309 33.7246 158.084 33.6155ZM192.786 119.878C192.786 119.878 190.706 126.555 186.656 128.854C185.78 128.416 185.889 127.76 185.123 126.774C184.904 126.446 184.137 126.226 183.81 125.898C183.481 125.57 183.591 125.022 183.043 124.585C182.605 124.147 182.277 124.475 181.839 124.147C181.401 123.709 181.291 123.162 180.963 122.834C180.744 122.615 179.869 122.506 179.65 122.286C179.102 121.739 174.286 120.754 174.505 119.659C174.942 118.016 175.818 116.813 175.818 116.813C175.818 116.813 177.898 113.747 179.978 113.857C182.058 113.966 184.028 114.404 185.123 113.419C186.327 112.324 193.115 116.374 192.786 119.878Z" fill="#010101"/>
<path d="M178.555 71.4923C178.555 71.4923 185.451 69.8498 190.159 74.3386C194.866 78.9364 194.537 84.6284 193.115 88.1314C194.319 89.5546 196.508 93.4951 194.866 98.2025C202.091 104.333 198.917 113.747 192.458 119.987C192.458 119.987 190.925 114.295 184.795 113.966C185.014 111.777 179.103 110.025 181.839 104.333C177.68 103.347 177.789 100.501 177.132 96.9987C176.585 93.4951 178.555 71.4923 178.555 71.4923Z" fill="#010101"/>
<path d="M176.037 74.5573C176.037 74.5573 184.028 70.5071 188.736 75.1049C193.443 79.7027 192.129 84.738 190.706 88.2411C191.91 89.6637 194.756 93.7149 193.005 98.5309C192.676 99.6257 190.268 99.6257 188.516 102.472C192.894 99.9535 195.632 100.611 196.617 103.785C198.15 108.711 194.756 114.622 191.8 117.907C191.8 117.797 191.691 117.687 191.691 117.578C191.253 119.221 190.705 122.395 187.422 125.898C185.779 127.649 184.466 127.431 182.605 126.993C180.416 126.445 179.649 125.459 176.584 123.818C174.833 122.833 175.818 121.629 175.818 120.643C175.818 120.425 176.037 120.096 176.365 119.658C176.584 119.111 177.241 118.236 178.226 117.25C178.226 117.25 179.649 115.28 181.73 115.389C183.81 115.498 185.999 115.061 186.546 114.513C186.546 110.682 182.168 110.572 183.7 104.004C183.81 103.676 184.357 103.128 186.108 102.909C183.481 102.362 182.277 102.252 180.416 100.501C179.102 99.2973 178.117 97.7645 177.788 95.7943C177.132 92.4009 176.037 74.5573 176.037 74.5573Z" fill="#F0EFEF"/>
<path d="M152.939 67.6608C152.282 66.7848 148.889 62.4063 142.43 60.6548C140.569 60.1071 139.365 61.6399 137.504 62.7347C136.957 62.4063 134.548 61.3115 133.235 62.0774C131.921 62.8432 131.046 63.6101 129.732 64.1573C129.074 63.8289 127.323 63.8289 125.9 64.376C124.477 64.814 122.288 65.7991 120.208 68.6454C118.894 73.3529 143.415 69.8493 143.415 69.8493L152.939 67.6608Z" fill="#010101"/>
<path d="M153.158 67.6608C149.655 66.4564 150.202 62.4063 142.43 61.7495C140.897 61.6399 139.912 62.8437 138.817 63.6101C139.365 64.1578 139.912 65.0333 140.24 65.9088C139.255 64.8145 137.504 63.3908 135.752 63.0625C134.11 62.7346 133.015 63.9385 131.263 64.8145C131.591 65.1424 131.92 65.69 132.358 66.3473C130.825 65.3622 129.731 65.0338 127.651 65.7997C126.228 66.2371 123.491 67.4415 121.411 70.3975C120.098 75.1049 143.524 69.8498 143.524 69.8498L153.158 67.6608Z" fill="#8AC640"/>
<path d="M173.738 69.4124C173.738 69.4124 173.738 68.208 173.629 67.1137C173.629 66.895 172.753 66.3473 172.753 66.1286L172.535 65.9093C172.535 65.9093 174.286 64.9242 175.6 65.4718C177.022 65.9093 177.789 67.7705 177.789 67.7705C180.307 66.895 180.525 67.8801 181.73 69.1936C184.357 68.646 184.685 69.6311 186.327 72.0399C186.327 72.0399 184.357 71.7115 180.526 72.3677C176.803 72.9149 173.738 69.3027 173.738 69.4124Z" fill="#010101"/>
<path d="M173.3 68.8647C173.3 68.8647 173.957 68.3171 173.738 68.2074C174.942 67.5507 176.584 66.7848 177.351 68.8647C179.869 67.9887 180.197 69.1931 181.401 70.5071C184.466 69.084 184.685 70.835 184.904 71.6014C183.919 71.6014 182.496 71.711 180.525 71.9297C176.804 72.4774 173.191 68.7551 173.3 68.8647Z" fill="#8AC640"/>
<path d="M136.081 66.1281C136.081 66.1281 142.321 68.317 147.575 67.9887C152.83 67.5512 161.806 67.1132 166.623 69.9595C166.623 69.9595 171.549 68.2074 176.147 69.4118C180.745 70.6157 189.174 78.4978 186.656 86.8174C186.437 87.365 185.014 88.2405 183.372 88.7882C183.372 88.7882 184.248 92.51 182.715 95.575C181.183 98.5309 177.789 104.223 177.68 112.105C177.57 113.419 177.352 116.155 177.132 117.469C168.594 117.141 155.457 113.966 142.54 114.185C142.649 112.762 142.759 111.886 142.868 110.463H143.196C142.539 106.85 142.321 104.989 141.663 102.253C137.504 99.6257 133.125 96.5607 129.403 90.7584C125.791 84.9562 136.081 66.1281 136.081 66.1281ZM178.336 125.242C178.336 125.242 185.124 149.544 177.132 159.725C177.132 159.725 178.336 164.432 175.6 169.468C175.162 171.657 174.614 173.628 174.286 175.817C172.863 184.903 170.454 188.734 169.797 203.293L163.229 203.184C163.229 203.184 162.462 192.675 160.164 187.092C158.851 183.918 153.705 179.648 153.925 175.379C154.143 172.095 154.8 169.358 160.384 164.979C160.821 158.63 154.472 152.609 155.457 128.964L178.336 125.242Z" fill="#010101"/>
<path d="M176.366 124.256C178.118 135.422 182.168 151.952 174.833 160.052C175.266 162.106 175.303 164.224 174.942 166.292C174.724 167.606 174.286 169.029 173.738 170.561C172.644 173.188 172.206 177.02 171.877 179.319C170.454 188.404 170.454 188.843 169.797 203.402L163.229 203.293C163.229 203.293 162.462 192.784 160.164 187.201C158.851 184.027 156.114 181.29 155.895 177.02C155.676 173.737 157.975 167.169 163.449 167.387C163.12 154.142 156.99 156.769 155.348 129.182L176.366 124.256ZM136.081 66.1281C136.081 66.1281 138.489 66.8944 141.116 67.1132C143.744 67.3319 146.59 67.1132 149.108 67.0035C154.362 66.5661 161.806 66.0184 166.732 68.8647C166.732 68.8647 169.469 67.9887 172.425 68.2074C173.738 68.3171 175.053 69.4118 176.585 69.8498C181.401 71.0537 185.999 79.0449 183.919 86.2703C183.7 86.8179 182.167 86.2703 180.416 86.8179C180.743 88.3507 180.963 91.8537 179.211 95.5755C177.351 99.2978 174.942 104.114 175.38 113.31C163.886 112.762 158.741 111.996 147.355 111.449C146.37 107.398 145.713 103.348 145.604 101.268C147.137 100.502 148.012 99.8455 149.217 98.5314C145.933 99.0791 144.619 98.8598 142.648 97.7651C140.678 96.6703 137.175 93.1673 135.423 90.8686C135.204 90.6493 134.001 94.2615 131.264 94.3717C130.278 92.9485 134.438 88.8978 133.672 87.3656C130.936 81.7821 136.081 66.1281 136.081 66.1281Z" fill="#F0EFEF"/>
<path d="M177.241 115.17C177.241 115.17 177.46 119.111 177.46 120.096C177.46 121.191 178.336 124.475 178.445 126.008C177.241 128.087 171.986 132.795 162.462 134.546C153.048 136.517 140.569 121.739 140.569 121.739C140.897 120.316 141.992 116.155 142.758 113.966C142.868 113.747 143.087 113.2 143.087 112.981C144.072 111.558 177.241 115.17 177.241 115.17Z" fill="#010101"/>
<path d="M174.833 115.499C174.833 118.236 175.271 120.206 175.6 121.958C176.147 125.133 177.022 127.213 177.022 129.292C177.022 135.641 168.703 134.546 161.696 134.766C152.282 136.737 144.29 121.958 144.29 121.958C144.947 119.44 145.385 116.594 146.37 114.185C146.479 112.872 146.699 111.23 146.808 110.464C160.163 110.464 169.578 111.23 175.051 111.777C175.271 112.981 175.052 115.061 174.833 115.499Z" fill="#F0EFEF"/>
<path d="M164.324 129.62C164.324 129.62 158.522 116.703 141.116 120.535C136.957 132.248 131.373 145.713 134.986 160.272C131.373 165.198 127.213 167.936 127.213 177.021C127.213 186.107 127.651 187.64 127.651 187.64L140.459 188.297C140.459 188.297 144.619 182.933 146.261 177.131C146.699 175.489 147.137 172.533 146.808 169.14C147.246 168.483 149.107 166.951 149.326 163.995C149.326 163.995 155.566 160.711 159.179 152.72C162.573 145.494 161.697 139.254 164.324 129.62Z" fill="#010101"/>
<path d="M164.324 129.62C163.996 128.416 159.617 116.594 143.415 120.096C133.891 145.494 137.395 156.003 138.817 160.6C132.358 168.81 129.403 170.561 130.717 187.201H139.256C143.196 180.962 144.072 178.662 144.291 170.452C144.291 170.124 143.087 171.109 142.211 172.204C142.868 168.81 144.729 168.154 146.152 166.074C146.809 165.198 147.356 163.884 147.356 162.133C155.019 156.988 157.865 150.529 159.507 143.851C160.821 139.254 162.353 131.7 164.324 129.62Z" fill="#F0EFEF"/>
<path d="M137.285 111.996C137.285 111.996 140.241 112.105 142.868 112.981C145.386 113.857 145.386 114.404 146.371 115.499C147.357 116.594 149.765 118.236 149.327 119.878C149.108 120.754 148.561 120.972 147.795 121.739C147.466 122.067 145.057 124.694 144.51 125.022C144.182 125.241 143.744 125.57 143.415 125.789L141.774 126.884C140.679 127.431 139.912 127.76 138.709 127.65C138.709 127.65 135.972 127.54 134.22 125.68C134.22 125.68 134.001 124.804 134.439 124.366C134.439 124.366 132.14 122.395 131.483 121.082C130.826 119.769 130.826 117.908 131.264 116.923C131.483 115.936 135.752 113.2 137.285 111.996ZM140.022 218.51L139.694 221.247C139.694 221.247 138.709 222.451 131.374 222.342C123.93 222.232 121.96 219.933 121.303 218.729L120.866 215.883C120.866 215.883 122.289 213.803 122.617 213.803C125.025 214.022 133.236 217.306 138.928 218.181C139.474 218.181 139.584 218.4 140.022 218.51ZM155.895 212.927C155.895 214.131 155.785 214.131 155.785 215.335C157.099 216.32 160.384 216.868 166.623 216.758C175.709 216.539 184.138 219.495 194.428 217.743L194.537 215.773L193.552 215.664L157.099 212.708L155.895 212.927Z" fill="#010101"/>
<path d="M163.886 216.758H166.623C172.535 216.54 178.118 217.853 184.138 218.181C187.313 218.072 191.254 217.305 190.925 215.007L159.836 212.379C157.975 214.459 159.397 216.211 163.886 216.758ZM128.199 170.672C129.184 171.328 135.862 175.269 146.699 174.722C146.48 176.802 146.59 180.852 141.773 187.968C139.365 191.471 137.284 197.601 136.847 205.374C136.957 207.125 137.942 208.657 136.628 210.957C137.066 212.379 138.817 215.226 139.693 216.977C140.569 218.729 141.007 220.699 135.204 220.809C129.293 220.918 119.769 220.261 121.083 215.664C121.741 213.256 123.601 210.738 123.82 209.752C124.039 208.767 124.039 205.812 125.9 203.841C127.542 198.368 126.995 193.113 126.667 188.187C126.119 183.041 126.009 174.831 128.199 170.672ZM138.38 81.4537C146.152 71.0537 139.584 62.7346 127.105 65.252C122.069 66.2371 117.034 69.7407 116.705 76.0895C115.063 76.3083 111.341 76.527 109.48 83.3143C108.057 88.5689 107.291 89.554 104.772 92.181C103.131 94.0422 104.882 97.8736 106.086 100.611C110.137 110.025 122.616 110.901 131.045 118.016C133.892 117.25 136.847 114.076 137.723 111.996C130.607 103.566 132.139 100.282 129.293 95.9039C132.359 94.8086 139.365 90.5397 138.38 81.4537Z" fill="#010101"/>
<path d="M136.847 80.797C137.284 80.1397 138.051 78.7171 138.38 78.1694C138.489 78.0598 139.693 80.1397 139.803 80.0306C142.758 75.2135 143.525 68.2074 140.131 67.5507C139.364 67.441 137.942 67.1132 136.737 66.6746C134.548 65.9082 132.578 65.9082 129.074 66.5655C124.258 67.441 119.441 70.9441 119.441 75.9799C119.441 76.3083 122.834 77.2934 123.82 81.3441C122.177 79.0449 119.331 76.527 115.938 78.7165C112.325 81.0152 114.186 86.2697 109.37 91.743C107.727 93.6042 107.947 95.7937 109.698 100.172C112.544 107.069 126.009 110.791 133.343 117.359C135.095 116.593 136.299 114.841 137.175 113.528C132.249 108.383 130.278 103.566 128.855 100.063C127.104 96.0125 125.133 93.7138 121.301 90.6477C123.272 91.4141 124.805 92.1805 125.68 92.8373C126.665 93.494 128.088 93.6037 129.402 93.1656C134.11 91.5248 136.628 84.9562 136.847 80.797Z" fill="#F0EFEF"/>
<path d="M184.466 82.5485C184.138 86.7083 181.073 84.6284 179.431 83.862C176.147 82.4389 172.862 81.4537 169.031 81.4537C165.2 81.4537 160.273 81.7821 156.005 82.8769C150.093 84.5188 148.341 84.4097 145.714 83.0956C143.087 81.6725 138.49 78.1694 138.49 78.1694C138.49 78.1694 138.38 79.2642 139.475 80.6873C140.898 82.4389 144.073 84.6284 148.342 86.051C150.422 86.7083 152.064 86.2697 153.925 85.8323C163.668 83.424 173.958 82.986 182.606 88.2405C183.044 88.4593 184.576 87.8025 185.233 86.8174C186.108 85.3948 184.466 82.5485 184.466 82.5485Z" fill="#010101"/>
<path d="M134.658 124.256C135.533 124.804 136.628 125.132 137.832 126.117C137.832 126.117 136.847 126.117 136.409 125.68C135.862 125.351 134.767 124.366 134.658 124.256Z" fill="#0A1825"/>
<path d="M166.294 37.447C165.966 36.4618 163.557 34.7098 157.975 34.7098C151.954 34.7098 150.202 36.5709 150.093 37.5561C150.093 37.8844 149.655 41.388 149.546 42.8106C149.546 42.8106 149.546 44.5621 149.655 47.1892C149.764 48.9407 150.202 49.9258 150.421 52.225C150.64 54.6327 151.297 56.1655 152.501 58.1363C153.049 58.4641 153.486 58.793 154.034 58.9027C156.223 59.3402 160.055 59.4498 162.135 58.9027C163.338 58.5743 164.871 56.4944 165.2 54.6333C165.637 52.3346 166.075 50.6922 166.185 49.2696C166.403 47.847 166.513 44.6718 166.622 43.7958C166.951 41.388 166.403 37.6657 166.294 37.447Z" fill="#F0EFEF"/>
<path d="M154.8 172.752C154.8 172.752 160.602 175.269 174.943 173.08C174.943 173.08 170.893 193.441 172.754 203.622C172.754 203.622 174.615 206.249 188.408 211.284C188.408 211.284 194.538 212.817 194.319 215.883C194.319 215.883 194.538 216.54 187.094 216.32C179.651 216.101 172.644 214.787 167.718 214.787C162.792 214.787 157.537 215.006 156.662 213.584C155.677 212.27 156.881 208.876 158.304 206.905C159.837 204.826 159.398 203.293 159.289 199.571C158.96 189.829 151.516 179.758 154.8 172.752Z" fill="#010101"/>
<path d="M153.596 174.613C152.829 175.707 153.705 179.867 154.8 183.917C155.894 187.968 158.303 190.376 158.85 197.054C159.397 203.622 159.507 204.498 157.646 208.329C155.785 212.159 155.238 215.663 161.696 215.773C168.154 215.882 171.658 215.663 178.226 216.649C184.795 217.634 187.093 217.962 190.706 217.415C194.319 216.868 195.085 215.663 193.552 214.569C192.02 213.474 185.67 212.27 182.934 210.08C180.306 208.11 172.862 204.825 172.753 203.95C172.425 200.994 172.315 190.266 172.862 186.763C173.41 183.26 174.176 178.224 174.395 176.911C174.614 175.597 175.709 174.283 173.848 174.721C171.987 175.159 164.981 176.144 159.726 175.816C154.472 175.488 153.925 174.284 153.596 174.613Z" fill="#8AC640"/>
<path opacity="0.3" d="M157.318 208.439C159.179 209.314 161.916 209.971 163.996 209.971C163.996 209.971 163.229 213.584 164.433 215.773C165.637 217.963 155.676 216.649 155.676 216.649L155.238 208.877L157.318 208.439ZM186.327 217.853C188.079 217.305 189.283 215.335 187.86 213.475C186.327 211.613 185.014 211.285 186.984 211.176C188.955 211.066 196.18 215.445 196.18 215.445L192.458 218.838L186.327 217.853ZM153.267 178.882C155.785 179.758 159.617 179.976 162.901 179.867C166.185 179.758 171.111 179.319 174.286 178.225C177.46 177.13 176.147 179.429 176.147 179.429L174.395 181.071C174.395 181.071 170.235 182.713 163.449 182.604C155.457 182.494 153.049 181.619 153.049 181.619L153.267 178.882ZM153.486 184.355C156.005 185.231 159.835 185.45 163.12 185.341C166.403 185.231 170.783 185.231 173.957 184.027C175.271 183.59 174.505 185.45 174.505 185.45L173.957 186.435C173.957 186.435 169.688 187.968 163.01 187.858C155.019 187.749 153.596 187.092 153.596 187.092L153.486 184.355Z" fill="#010101"/>
<path d="M146.261 107.617C146.261 108.384 154.8 112.653 159.507 113.529C164.214 114.404 174.067 113.529 175.599 113.2L175.38 114.733C175.38 114.733 163.667 116.485 154.69 114.076C145.714 111.668 146.699 111.12 146.699 111.12L146.261 107.617Z" fill="#010101"/>
<path d="M127.98 200.995C129.293 201.652 134.001 202.856 137.066 202.199C137.503 202.089 137.066 194.645 138.27 191.252C140.022 186.544 142.868 182.713 144.181 174.394C139.583 173.956 134.329 172.752 131.592 171.875C128.089 182.604 129.294 191.799 127.98 200.995ZM135.315 207.892C136.081 208.11 136.628 208.986 136.847 208.439C137.285 207.454 136.081 205.593 135.971 204.279V204.17C134.986 203.294 128.309 203.185 128.747 203.622C127.98 205.045 126.776 204.827 126.339 207.673C126.12 209.095 127.872 207.892 129.513 207.782C126.558 209.752 123.164 212.271 122.617 214.46C121.96 217.525 123.055 218.401 126.339 220.043C129.185 220.7 132.579 220.81 135.206 220.7C138.161 220.152 138.709 218.73 137.833 216.759C136.519 213.803 135.643 209.971 135.315 207.892Z" fill="#F0EFEF"/>
<path d="M136.519 65.69C140.131 67.7699 145.167 67.2228 147.028 67.1132C147.466 67.1132 151.845 66.3468 152.063 66.4559C152.501 66.5655 152.501 66.8939 152.501 66.8939C152.501 66.8939 150.859 67.7694 147.137 67.9881C143.634 68.2069 139.474 67.9881 137.176 66.8939C134.439 65.69 136.519 65.69 136.519 65.69ZM173.738 67.7699C174.395 68.2074 178.665 69.8498 180.526 71.8201C182.168 73.5721 181.292 73.4625 180.963 73.0245C180.526 72.4768 177.132 70.1782 175.818 69.6311C174.505 69.084 172.862 68.0983 172.862 67.8796C172.862 67.6608 173.738 67.7699 173.738 67.7699Z" fill="#010101"/>
<path d="M135.971 113.2C139.146 112.981 142.43 113.747 144.51 115.936C145.604 117.031 147.356 118.235 147.137 119.33C147.137 119.658 146.48 120.534 145.933 121.191C145.605 121.629 144.62 122.614 144.291 122.943C143.854 123.271 142.321 124.475 141.992 124.694C141.664 124.913 141.226 125.461 140.898 125.57C139.803 126.118 138.599 125.68 137.504 125.133C136.41 124.585 137.723 124.475 136.519 123.6C133.564 121.52 131.921 120.096 133.126 116.046C133.235 115.28 134.439 114.404 135.971 113.2Z" fill="#F0EFEF"/>
<path opacity="0.4" d="M108.057 88.1314C98.2043 92.0725 73.1354 104.552 66.0202 108.384C71.9315 112.106 74.6682 121.082 75.5442 130.168C75.6533 131.044 75.763 131.81 75.8726 132.686C75.9817 133.452 76.0913 133.999 76.2004 134.328C76.2004 134.438 76.2004 134.657 76.3101 134.766C82.769 117.141 105.867 98.5314 106.743 97.1083C107.18 96.4515 106.195 93.6053 107.728 90.8691C109.699 87.365 113.531 85.8322 108.057 88.1314ZM131.483 170.781C136.519 160.71 136.628 151.077 136.519 139.801C136.519 135.094 139.912 128.416 138.161 130.277C131.592 137.611 115.063 151.405 103.131 152.171C119.879 151.624 126.447 160.053 131.483 170.781Z" fill="#010101"/>
<path d="M56.3866 117.688C62.6263 113.2 94.92 96.0135 102.692 93.6047C110.464 91.0868 108.056 88.1309 108.056 88.1309C108.056 88.1309 76.5288 101.705 57.7001 113.419" fill="#010101"/>
<path opacity="0.4" d="M148.341 86.0515C145.823 85.0664 143.853 88.0223 144.51 90.8686C145.167 93.7149 151.078 96.889 150.749 107.289C150.531 115.828 148.67 119.33 148.67 119.33L144.51 114.076C144.51 114.076 143.853 102.253 142.43 100.502C141.007 98.7502 136.519 95.5755 134.767 93.9337C133.015 92.2912 136.737 90.1022 136.519 87.0367C136.3 84.0813 138.38 78.17 138.38 78.17L148.341 86.0515ZM163.558 132.685C163.339 140.895 165.2 153.047 165.966 158.849C166.732 164.651 167.718 165.089 165.966 167.716C164.214 170.234 161.916 174.394 161.916 174.394L154.362 173.737C154.362 173.737 160.383 166.074 160.711 164.651C161.039 163.228 157.646 152.391 157.646 152.391L163.558 132.685ZM148.998 56.057C150.531 59.4498 152.392 60.9826 155.347 61.9683C157.099 62.625 163.995 63.501 166.732 60.4355C167.936 59.0123 167.17 55.1809 167.17 55.1809L160.93 60.2162L152.501 58.684L151.516 56.1661L148.998 56.057Z" fill="#010101"/>
<path d="M149.655 63.6101C152.501 65.4713 159.617 67.2228 161.587 67.5512C163.557 67.9887 166.732 65.4713 168.265 64.8145C169.907 64.0482 172.753 63.6101 176.037 66.5661C176.365 66.8944 175.271 68.3176 175.271 68.3176C175.161 68.2079 174.504 68.2079 173.628 67.7699C172.753 67.3325 171.986 67.0035 170.673 67.1132C165.199 67.7699 164.324 69.6311 159.507 68.5358C154.69 67.4405 153.486 66.5655 148.779 66.7843" fill="#8AC640"/>
<path d="M149.655 63.6101C152.501 65.4713 159.617 67.2228 161.587 67.5512C163.557 67.9887 166.732 65.4713 168.265 64.8145C169.907 64.0482 172.753 63.6101 176.037 66.5661C176.365 66.8944 175.271 68.3176 175.271 68.3176C175.161 68.2079 174.504 68.2079 173.628 67.7699C172.753 67.3325 171.986 67.0035 170.673 67.1132C165.199 67.7699 164.324 69.6311 159.507 68.5358C154.69 67.4405 153.486 66.5655 148.779 66.7843" stroke="#010101" stroke-width="2" stroke-miterlimit="10" stroke-linejoin="round"/>
<path d="M148.67 63.9385C152.282 65.4713 159.288 67.1132 161.259 67.5512C163.229 67.9892 166.403 66.0184 167.936 65.0333C170.673 63.2818 174.176 64.7049 175.818 66.5661C176.913 67.7699 177.351 68.5363 177.351 68.8647C177.351 69.3022 176.038 68.8647 176.038 68.8647C175.271 68.5363 174.395 68.4272 173.739 67.9887C172.863 67.5512 171.987 66.8944 170.674 67.0035C165.2 67.6608 164.105 69.5214 159.398 68.4267C154.692 67.3319 153.487 66.3468 148.452 66.6746" fill="#8AC640"/>
<path d="M131.702 166.183C131.483 165.964 131.921 165.745 131.702 165.745C130.279 165.745 128.309 164.651 127.213 163.118C122.506 156.331 115.609 151.843 103.13 152.171C84.4104 152.609 76.9663 144.946 75.5437 130.278C74.7773 122.286 72.5877 114.514 68.0996 110.135L65.472 111.777C70.5073 116.156 72.1497 123.271 73.2445 133.014C74.996 147.683 86.8186 154.47 100.612 154.689C114.953 154.908 120.098 157.864 125.461 165.089C127.213 167.388 129.184 168.154 130.716 168.483L131.702 166.183Z" fill="#010101"/>
<path opacity="0.4" d="M182.496 95.7943C182.824 97.4361 183.7 100.611 185.451 102.143C186.218 102.909 186.328 103.128 185.671 103.128C185.013 103.128 180.197 102.909 180.197 102.909L178.883 100.611L182.496 95.7943Z" fill="#010101"/>
</svg>
            </g>

            <g transform="translate(1200, 600)">
                <svg width="256" height="256" title="Motion" viewBox="0 0 256 256" fill="none" xmlns="http://www.w3.org/2000/svg">
<rect width="256" height="256" rx="25" fill="#FFF312"/>
<path d="M108.364 99L75.7299 157H46L71.4817 111.711C75.4318 104.691 85.289 99 93.4988 99H108.364ZM181.27 113.5C181.27 105.492 187.925 99 196.135 99C204.344 99 211 105.492 211 113.5C211 121.508 204.344 128 196.135 128C187.925 128 181.27 121.508 181.27 113.5ZM113.938 99H143.668L111.034 157H81.3042L113.938 99ZM149.052 99H178.782L153.3 144.289C149.35 151.309 139.492 157 131.283 157H116.418L149.052 99Z" fill="black"/>
</svg>
            </g>

            <g transform="translate(0, 900)">
                <svg width="256" height="256" title="Three.js" viewBox="0 0 256 256" fill="none" xmlns="http://www.w3.org/2000/svg" id="threejs">
<style>
#threejs {
    rect {fill: #15191C}
    path {fill: #F4F2ED}

    @media (prefers-color-scheme: light) {
        rect {fill: #F4F2ED}
        path {fill: #15191C}
    }
}
</style>
<rect width="256" height="256" rx="25" fill="#15191C"/>
<path d="M57.7756 56.0001C57.5045 56.0044 57.2378 56.0698 56.9953 56.1914C56.7529 56.313 56.541 56.4876 56.3754 56.7024C56.2098 56.9172 56.0948 57.1665 56.0388 57.4319C55.9829 57.6972 55.9875 57.9718 56.0523 58.2351L75.5344 137.106C75.5499 137.198 75.5724 137.288 75.6018 137.376L95.057 216.193C95.1331 216.501 95.2892 216.784 95.5095 217.013C95.7299 217.242 96.0067 217.408 96.312 217.496C96.6173 217.583 96.9403 217.588 97.2483 217.511C97.5564 217.433 97.8385 217.276 98.0662 217.055L215.451 104.133C215.678 103.913 215.843 103.638 215.93 103.334C216.017 103.03 216.023 102.708 215.947 102.402C215.87 102.095 215.715 101.813 215.495 101.586C215.276 101.358 215.001 101.192 214.697 101.104L175.759 89.8819C175.506 89.7377 175.222 89.6569 174.931 89.6463L98.1672 67.5454C97.8761 67.3655 97.5399 67.2721 97.1978 67.2761L58.2873 56.0675C58.1208 56.0206 57.9485 55.998 57.7756 56.0001ZM60.2934 60.4028L93.6568 70.0026L68.614 94.1298L60.2934 60.4028ZM99.7155 71.7529L132.46 81.1776L107.888 104.84L99.7155 71.7529ZM96.2015 72.5607L104.394 105.722L71.5626 96.2975L96.2015 72.5607ZM138.478 82.9144L171.316 92.366L146.664 116.13L138.478 82.9144ZM134.977 83.7895L143.11 116.776L110.439 107.405L134.977 83.7895ZM177.388 94.1163L210.691 103.703L185.682 127.762L177.388 94.1163ZM173.861 94.9241L182.04 128.086L149.215 118.674L173.861 94.9241ZM69.9739 99.6096L103.391 109.196L78.308 133.337L69.9739 99.6096ZM109.389 110.865L142.221 120.29L117.582 144.034L109.389 110.865ZM105.902 111.788L114.223 145.562L80.8123 135.922L105.902 111.788ZM148.138 122.121L181.562 131.714L156.452 155.855L148.138 122.121ZM144.638 122.976L152.952 156.717L119.575 147.09L144.638 122.976ZM79.8092 139.389L112.614 148.854L88.002 172.57L79.8092 139.389ZM119.218 150.745L151.955 160.19L127.397 183.819L119.218 150.745ZM115.583 151.015L123.755 184.183L90.9371 174.758L115.583 151.015ZM89.3551 178.077L123.264 187.784L97.8037 212.275L89.3551 178.077Z" fill="#F4F2ED"/>
</svg>
            </g>

            <g transform="translate(300, 900)">
                <svg width="256" height="256" title="Postman" viewBox="0 0 256 256" fill="none" xmlns="http://www.w3.org/2000/svg">
<rect width="256" height="256" rx="25" fill="#FF6C37"/>
<path d="M169.061 88.6123L118.521 139.153L104.268 124.901C153.971 75.1986 158.882 79.5101 169.061 88.6123Z" fill="#EEEEEE"/>
<path d="M118.521 140.35C118.161 140.35 117.922 140.231 117.682 139.991L103.31 125.739C102.831 125.26 102.831 124.542 103.31 124.063C153.851 73.5211 159.12 78.3118 169.78 87.8932C170.02 88.1328 170.139 88.3724 170.139 88.7317C170.139 89.0911 170.02 89.3306 169.78 89.5694L119.239 139.991C119.12 140.231 118.76 140.35 118.521 140.35ZM105.945 124.901L118.521 137.476L167.265 88.7317C158.403 80.8266 152.414 78.4316 105.945 124.901Z" fill="#FF6C37"/>
<path d="M133.012 153.645L119.239 139.872L169.78 89.3315C183.314 102.984 163.073 125.141 133.012 153.645Z" fill="#EEEEEE"/>
<path d="M133.012 154.843C132.652 154.843 132.414 154.723 132.174 154.483L118.401 140.71C118.161 140.471 118.161 140.231 118.161 139.872C118.161 139.512 118.281 139.273 118.521 139.033L169.061 88.4927C169.54 88.0135 170.259 88.0135 170.738 88.4927C173.852 91.3668 175.529 95.4387 175.409 99.6305C175.17 112.924 160.079 129.811 133.97 154.483C133.611 154.723 133.251 154.843 133.012 154.843ZM120.916 139.872C128.58 147.656 131.815 150.771 133.012 151.968C153.133 132.806 172.654 113.164 172.774 99.6305C172.894 96.5168 171.697 93.4031 169.66 91.0074L120.916 139.872Z" fill="#FF6C37"/>
<path d="M104.508 125.26L114.688 135.44C114.927 135.68 114.927 135.919 114.688 136.159C114.568 136.279 114.568 136.279 114.449 136.279L93.3693 140.83C92.292 140.95 91.3337 140.231 91.0942 139.153C90.9744 138.554 91.214 137.956 91.5733 137.596L103.789 125.38C104.029 125.14 104.388 125.02 104.508 125.26Z" fill="#EEEEEE"/>
<path d="M93.01 142.028C91.214 142.028 89.8963 140.59 89.8963 138.793C89.8963 137.956 90.2557 137.117 90.8546 136.518L103.07 124.302C103.789 123.703 104.748 123.703 105.466 124.302L115.646 134.482C116.364 135.081 116.364 136.159 115.646 136.877C115.406 137.117 115.167 137.237 114.807 137.357L93.7287 141.908C93.4891 141.908 93.2495 142.028 93.01 142.028ZM104.149 126.577L92.4118 138.314C92.1723 138.554 92.0525 138.913 92.292 139.272C92.4118 139.632 92.7704 139.752 93.1298 139.632L112.891 135.32L104.149 126.577Z" fill="#FF6C37"/>
<path d="M195.769 60.5877C188.104 53.1625 175.768 53.4021 168.342 61.1867C160.917 68.9712 161.157 81.1871 168.941 88.6131C175.289 94.7207 184.871 95.7988 192.416 91.2476L178.762 77.5943L195.769 60.5877Z" fill="#EEEEEE"/>
<path d="M182.355 95.1996C170.978 95.1996 161.756 85.9776 161.756 74.6002C161.756 63.222 170.978 54 182.355 54C187.625 54 192.775 56.0364 196.607 59.749C196.847 59.9886 196.967 60.2281 196.967 60.5875C196.967 60.9469 196.847 61.1864 196.607 61.426L180.439 77.5941L193.134 90.2891C193.614 90.7683 193.614 91.487 193.134 91.9661C193.015 92.0859 193.015 92.0859 192.895 92.2057C189.781 94.1215 186.068 95.1996 182.355 95.1996ZM182.355 56.5155C172.295 56.5155 164.151 64.6595 164.271 74.72C164.271 84.7805 172.414 92.9244 182.475 92.8047C185.23 92.8047 187.984 92.2057 190.499 90.888L177.924 78.4326C177.684 78.193 177.565 77.9534 177.565 77.5941C177.565 77.2347 177.684 76.9951 177.924 76.7556L193.973 60.7073C190.739 57.953 186.667 56.5155 182.355 56.5155Z" fill="#FF6C37"/>
<path d="M196.128 60.9471L195.889 60.7075L178.762 77.5943L192.296 91.1279C193.614 90.2894 194.93 89.3319 196.009 88.2538C203.673 80.708 203.673 68.4921 196.128 60.9471Z" fill="#EEEEEE"/>
<path d="M192.416 92.4448C192.056 92.4448 191.817 92.325 191.577 92.0855L177.924 78.4321C177.684 78.1925 177.565 77.953 177.565 77.5936C177.565 77.2342 177.684 76.9947 177.924 76.7551L194.93 59.7485C195.41 59.2694 196.128 59.2694 196.607 59.7485L196.967 59.9881C204.991 68.0122 204.991 80.9469 197.087 89.0916C195.889 90.2887 194.571 91.3667 193.134 92.2053C192.775 92.325 192.536 92.4448 192.416 92.4448ZM180.439 77.5936L192.536 89.6897C193.494 89.0916 194.452 88.2531 195.17 87.5344C201.997 80.7073 202.356 69.5695 195.769 62.3838L180.439 77.5936Z" fill="#FF6C37"/>
<path d="M171.098 90.7674C168.223 87.8933 163.552 87.8933 160.678 90.7674L115.526 135.919L123.072 143.464L170.858 101.547C173.972 98.9113 174.211 94.2404 171.577 91.1267C171.337 91.007 171.217 90.8872 171.098 90.7674Z" fill="#EEEEEE"/>
<path d="M122.952 144.662C122.593 144.662 122.353 144.542 122.113 144.303L114.568 136.758C114.089 136.279 114.089 135.56 114.568 135.081L159.719 89.929C163.073 86.5758 168.462 86.5758 171.816 89.929C175.17 93.283 175.17 98.6719 171.816 102.026C171.697 102.146 171.577 102.265 171.457 102.385L123.67 144.303C123.551 144.542 123.311 144.662 122.952 144.662ZM117.203 135.919L123.072 141.788L170.02 100.588C172.654 98.4323 172.894 94.4801 170.738 91.8456C168.582 89.2111 164.63 88.9715 161.995 91.1269C161.876 91.2467 161.756 91.3664 161.516 91.4862L117.203 135.919Z" fill="#FF6C37"/>
<path d="M80.9139 187.3C80.4347 187.539 80.1951 188.018 80.3149 188.497L82.3513 197.121C82.8305 198.318 82.1117 199.756 80.7941 200.115C79.8358 200.474 78.7585 200.115 78.1596 199.397L64.9854 186.342L107.981 143.346L122.832 143.585L132.892 153.646C130.497 155.682 116.005 169.694 80.9139 187.3Z" fill="#EEEEEE"/>
<path d="M79.9556 201.311C78.9981 201.311 78.0398 200.952 77.4408 200.234L64.3864 187.179C64.1469 186.94 64.0271 186.7 64.0271 186.341C64.0271 185.982 64.1469 185.742 64.3864 185.502L107.382 142.507C107.622 142.267 107.981 142.147 108.221 142.147L123.072 142.387C123.431 142.387 123.67 142.507 123.909 142.746L133.97 152.806C134.21 153.046 134.329 153.405 134.329 153.764C134.329 154.124 134.21 154.363 133.85 154.603L133.012 155.322C120.317 166.459 103.07 177.598 81.6326 188.257L83.669 196.76C84.0275 198.317 83.3096 199.994 81.8722 200.832C81.1534 201.191 80.5545 201.311 79.9556 201.311ZM66.7814 186.341L79.1178 198.557C79.4764 199.156 80.1951 199.395 80.7941 199.036C81.393 198.677 81.6326 197.958 81.2732 197.359L79.2376 188.736C78.9981 187.658 79.4764 186.7 80.4347 186.221C101.633 175.562 118.76 164.544 131.335 153.645L122.473 144.782L108.7 144.542L66.7814 186.341Z" fill="#FF6C37"/>
<path d="M54.8051 196.641L65.1052 186.341L80.4347 201.671L56.0029 199.995C54.9249 199.875 54.2061 198.917 54.3259 197.838C54.3259 197.359 54.4457 196.88 54.8051 196.641Z" fill="#EEEEEE"/>
<path d="M80.4347 202.749L55.8831 201.072C54.0863 200.952 52.8884 199.396 53.0082 197.599C53.128 196.88 53.3676 196.162 53.9665 195.683L64.2666 185.383C64.7458 184.904 65.4645 184.904 65.9429 185.383L81.2732 200.713C81.6326 201.072 81.7524 201.551 81.5128 202.031C81.2732 202.51 80.9139 202.749 80.4347 202.749ZM65.1051 188.018L55.6435 197.479C55.2842 197.719 55.2842 198.318 55.6435 198.557C55.7633 198.677 55.8831 198.797 56.1227 198.797L77.321 200.234L65.1051 188.018Z" fill="#FF6C37"/>
<path d="M103.789 148.855C103.07 148.855 102.591 148.256 102.591 147.657C102.591 147.298 102.711 147.059 102.951 146.819L114.568 135.202C115.047 134.722 115.766 134.722 116.245 135.202L123.79 142.747C124.149 143.106 124.269 143.465 124.149 143.945C124.029 144.304 123.67 144.663 123.192 144.783L104.029 148.855C103.909 148.855 103.789 148.855 103.789 148.855ZM115.406 137.717L107.502 145.622L120.436 142.866L115.406 137.717Z" fill="#FF6C37"/>
<path d="M122.832 143.584L109.658 146.459C108.7 146.699 107.741 146.1 107.502 145.142C107.382 144.543 107.502 143.944 107.981 143.465L115.286 136.159L122.832 143.584Z" fill="#EEEEEE"/>
<path d="M109.418 147.657C107.741 147.657 106.424 146.34 106.424 144.663C106.424 143.825 106.783 143.106 107.262 142.508L114.568 135.202C115.047 134.722 115.766 134.722 116.245 135.202L123.79 142.747C124.149 143.106 124.269 143.465 124.149 143.945C124.029 144.304 123.67 144.663 123.192 144.783L110.017 147.657C109.778 147.657 109.538 147.657 109.418 147.657ZM115.406 137.717L108.939 144.184C108.7 144.424 108.7 144.663 108.819 144.903C108.939 145.142 109.179 145.262 109.538 145.262L120.556 142.866L115.406 137.717Z" fill="#FF6C37"/>
<path d="M196.248 72.4434C196.009 71.7254 195.17 71.3661 194.451 71.6057C193.733 71.8444 193.374 72.6829 193.614 73.4017C193.614 73.5215 193.733 73.6412 193.733 73.761C194.451 75.1985 194.213 76.9945 193.254 78.3121C192.775 78.9111 192.895 79.7496 193.374 80.2287C193.973 80.7071 194.811 80.5881 195.29 79.9892C197.087 77.7132 197.446 74.8391 196.248 72.4434Z" fill="#FF6C37"/>
</svg>
            </g>

            <g transform="translate(600, 900)">
                <svg width="256" height="256" title="Git" viewBox="0 0 256 256" fill="none" xmlns="http://www.w3.org/2000/svg">
<rect width="256" height="256" rx="25" fill="#F05032"/>
<path d="M212.691 119.701L136.281 43.2977C131.877 38.9008 124.746 38.9008 120.327 43.2977L104.496 59.1572L124.622 79.2824C129.325 77.7147 134.677 78.772 138.396 82.4981C142.158 86.2533 143.194 91.6711 141.59 96.3524L160.971 115.748C165.674 114.122 171.085 115.18 174.825 118.92C180.083 124.17 180.083 132.658 174.825 137.908C169.583 143.151 161.11 143.151 155.867 137.908C151.937 133.963 150.952 128.159 152.921 123.354L134.772 105.299V152.878C136.055 153.505 137.266 154.358 138.33 155.416C143.529 160.673 143.529 169.146 138.33 174.374C133.087 179.631 124.556 179.631 119.306 174.374C114.063 169.131 114.063 160.673 119.306 155.43C120.633 154.118 122.128 153.126 123.718 152.47V104.424C122.135 103.761 120.626 102.806 119.342 101.5C115.368 97.5264 114.413 91.7149 116.455 86.8513L96.6797 66.9813L44.2813 119.343C39.9062 123.755 39.9062 130.893 44.2813 135.305L120.699 211.7C125.103 216.105 132.234 216.105 136.638 211.7L212.691 135.648C217.103 131.251 217.103 124.112 212.691 119.701Z" fill="#F4F2ED"/>
</svg>
            </g>

            <g transform="translate(900, 900)">
                <svg width="256" height="256" title="GitHub" viewBox="0 0 256 256" fill="none" xmlns="http://www.w3.org/2000/svg" id="github">
<style>
#github {
    rect {fill: #15191C}
    path {fill: #F4F2ED}

    @media (prefers-color-scheme: light) {
        rect {fill: #F4F2ED}
        path {fill: #15191C}
    }
}
</style>
<rect width="256" height="256" rx="25" fill="#15191C"/>
<path d="M128.5 43C80.1562 43 41 82.1781 41 130.5C41 169.168 66.0687 201.958 100.828 213.516C105.203 214.34 106.807 211.634 106.807 209.308C106.807 207.23 106.734 201.725 106.698 194.433C82.3583 199.713 77.225 182.694 77.225 182.694C73.2437 172.595 67.4906 169.897 67.4906 169.897C59.5646 164.472 68.1031 164.581 68.1031 164.581C76.8896 165.194 81.5052 173.594 81.5052 173.594C89.3073 186.974 101.988 183.109 106.99 180.871C107.777 175.212 110.03 171.355 112.531 169.168C93.099 166.98 72.675 159.455 72.675 125.928C72.675 116.376 76.0656 108.574 81.6802 102.449C80.6958 100.24 77.7427 91.3438 82.4458 79.2906C82.4458 79.2906 89.774 76.9427 106.508 88.2594C113.508 86.3125 120.946 85.35 128.383 85.3063C135.821 85.35 143.258 86.3125 150.258 88.2594C166.883 76.9427 174.211 79.2906 174.211 79.2906C178.915 91.3438 175.961 100.24 175.086 102.449C180.665 108.574 184.055 116.376 184.055 125.928C184.055 159.543 163.602 166.944 144.133 169.095C147.196 171.72 150.04 177.086 150.04 185.282C150.04 196.993 149.93 206.399 149.93 209.243C149.93 211.54 151.461 214.274 155.946 213.399C190.953 201.922 216 169.109 216 130.5C216 82.1781 176.822 43 128.5 43Z" fill="#F4F2ED"/>
</svg>
            </g>

            <g transform="translate(1200, 900)">
                <svg width="256" height="256" title="ShadCN UI" viewBox="0 0 256 256" fill="none" xmlns="http://www.w3.org/2000/svg" id="shadcnui">
<style>
#shadcnui {
    rect {fill: #15191C}
    path {fill: #F4F2ED}

    @media (prefers-color-scheme: light) {
        rect {fill: #F4F2ED}
        path {fill: #15191C}
    }
}
</style>
<rect width="256" height="256" rx="25" fill="#15191C"/>
<path d="M191.867 126.65L126.65 191.867C124.106 194.411 124.106 198.542 126.65 201.092C129.194 203.636 133.325 203.636 135.875 201.092L201.092 135.875C203.636 133.325 203.636 129.194 201.092 126.65C198.542 124.106 194.411 124.106 191.867 126.65ZM178.824 54.9078L54.9078 178.824C52.3641 181.368 52.3641 185.499 54.9078 188.049C57.4577 190.592 61.5889 190.592 64.1326 188.049L188.049 64.1326C190.592 61.5889 190.592 57.4577 188.049 54.9078C185.499 52.3641 181.368 52.3641 178.824 54.9078Z" fill="#F4F2ED"/>
</svg>
            </g>

            <g transform="translate(0, 1200)">
                <svg width="256" height="256" title="Node.js" viewBox="0 0 256 256" fill="none" xmlns="http://www.w3.org/2000/svg" id="nodejs">
<style>
#nodejs {
    rect {fill: #15191C}

    @media (prefers-color-scheme: light) {
        rect {fill: #F4F2ED}
    }
}
</style>
<rect width="256" height="256" rx="25" fill="#15191C"/>
<path d="M127.989 218.428C125.576 218.428 123.17 217.796 121.057 216.571L98.9853 203.512C95.6925 201.671 97.3013 201.016 98.3839 200.633C102.782 199.107 103.669 198.754 108.367 196.092C108.856 195.814 109.503 195.919 110.006 196.22L126.966 206.286C127.583 206.625 128.447 206.625 129.011 206.286L195.13 168.126C195.746 167.773 196.137 167.066 196.137 166.337V90.0321C196.137 89.2879 195.739 88.5887 195.107 88.2128L129.019 50.0829C128.41 49.7295 127.598 49.7295 126.981 50.0829L60.908 88.2204C60.2689 88.5887 59.863 89.3104 59.863 90.0321V166.337C59.863 167.066 60.2689 167.758 60.908 168.104L79.0182 178.569C88.8439 183.485 94.8656 177.696 94.8656 171.878V96.5425C94.8656 95.475 95.7226 94.6405 96.7901 94.6405H105.172C106.217 94.6405 107.089 95.4825 107.089 96.5425V171.878C107.089 184.996 99.9476 192.514 87.5132 192.514C83.6942 192.514 80.6796 192.514 72.2823 188.372L54.9314 178.396C50.6462 175.922 48 171.291 48 166.337V90.0321C48 85.0779 50.6538 80.447 54.9314 77.9812L121.05 39.7761C125.237 37.408 130.793 37.408 134.943 39.7761L201.054 77.9812C205.339 80.4545 208 85.0779 208 90.0321V166.337C208 171.291 205.339 175.907 201.054 178.396L134.943 216.571C132.838 217.796 130.44 218.428 127.989 218.428ZM181.372 143.198C181.372 128.914 171.719 125.11 151.399 122.426C130.868 119.712 128.778 118.306 128.778 113.503C128.778 109.533 130.545 104.233 145.753 104.233C159.338 104.233 164.344 107.158 166.404 116.314C166.585 117.179 167.374 117.81 168.261 117.81H176.839C177.373 117.81 177.876 117.577 178.237 117.201C178.598 116.795 178.794 116.277 178.741 115.728C177.41 99.9555 166.931 92.6032 145.753 92.6032C126.899 92.6032 115.652 100.557 115.652 113.901C115.652 128.373 126.839 132.372 144.934 134.161C166.585 136.281 168.261 139.446 168.261 143.701C168.261 151.091 162.33 154.241 148.399 154.241C130.906 154.241 127.057 149.851 125.763 141.145C125.613 140.213 124.816 139.529 123.861 139.529H115.314C114.254 139.529 113.404 140.371 113.404 141.431C113.404 152.572 119.464 165.849 148.399 165.849C169.359 165.856 181.372 157.609 181.372 143.198Z" fill="#5FA04E"/>
</svg>
            </g>

            <g transform="translate(300, 1200)">
                <svg width="256" height="256" title="MongoDB" viewBox="0 0 256 256" fill="none" xmlns="http://www.w3.org/2000/svg">
<rect width="256" height="256" rx="25" fill="#023430"/>
<path d="M169.486 108.361C159.51 64.3498 138.717 52.6336 133.412 44.3514C131.225 40.7029 129.287 36.9104 127.613 33C127.333 36.9097 126.818 39.3729 123.494 42.3378C116.822 48.2872 88.4824 71.3809 86.0974 121.386C83.8753 168.011 120.373 196.76 125.195 199.732C128.903 201.557 133.418 199.771 135.621 198.096C153.215 186.022 177.253 153.831 169.505 108.361" fill="#10AA50"/>
<path d="M129.124 174.905C128.206 186.445 127.548 193.151 125.215 199.746C125.215 199.746 126.746 210.732 127.821 222.37H131.627C132.535 214.175 133.92 206.039 135.778 198.005C130.851 195.581 129.314 185.032 129.124 174.905Z" fill="#B8C4C2"/>
<path d="M135.771 198.012C130.792 195.712 129.352 184.94 129.131 174.905C130.361 158.351 130.72 141.744 130.206 125.153C129.945 116.448 130.329 44.5208 128.062 33.9905C129.613 37.5571 131.4 41.0162 133.412 44.3449C138.716 52.6336 159.516 64.3498 169.486 108.361C177.253 153.753 153.345 185.859 135.771 198.012Z" fill="#12924F"/>
</svg>
            </g>

            <g transform="translate(600, 1200)">
                <svg width="256" height="256" title="Prisma" viewBox="0 0 256 256" fill="none" xmlns="http://www.w3.org/2000/svg">
<rect width="256" height="256" rx="25" fill="#677EEB"/>
<path fill-rule="evenodd" clip-rule="evenodd" d="M54.4241 162.312C52.5519 159.359 52.5237 155.597 54.3511 152.615L123.16 40.3746C126.987 34.1318 136.229 34.6776 139.294 41.3275L202.155 177.686C204.487 182.745 201.802 188.698 196.465 190.3L98.6816 219.635C94.7474 220.815 90.5083 219.234 88.3091 215.764L54.4241 162.312ZM131.099 73.193C131.762 69.8911 136.286 69.415 137.622 72.5065L180.983 172.839C181.799 174.729 180.783 176.907 178.811 177.495L111.25 197.663C108.767 198.404 106.388 196.235 106.899 193.693L131.099 73.193Z" fill="#F7FAFC"/>
</svg>
            </g>

            <g transform="translate(900, 1200)">
                <svg width="256" height="256" title="Appwrite" viewBox="0 0 256 256" fill="none" xmlns="http://www.w3.org/2000/svg">
<rect width="256" height="256" rx="25" fill="#FD366E"/>
<path d="M208 162.813V198.08H118.38C100.496 198.082 83.2792 191.29 70.213 179.079C57.1468 166.868 49.2069 150.15 48 132.307L48 122.773C48.32 117.873 49.16 113.02 50.4933 108.3C58.8667 78.6933 86.0867 57 118.38 57C150.673 57 177.893 78.6933 186.267 108.3H147.94C144.74 103.376 140.359 99.3303 135.196 96.5312C130.033 93.7322 124.253 92.2685 118.38 92.2733C112.507 92.2678 106.726 93.7313 101.563 96.5304C96.4007 99.3296 92.0199 103.376 88.82 108.3C85.0733 114.015 83.0889 120.706 83.1133 127.54C83.1055 132.346 84.0835 137.102 85.987 141.514C87.8905 145.926 90.679 149.902 94.18 153.193C100.717 159.382 109.379 162.825 118.38 162.813H208ZM208 117.92V153.193H142.58C146.08 149.901 148.869 145.926 150.773 141.513C152.678 137.101 153.658 132.346 153.653 127.54C153.653 124.207 153.187 120.98 152.327 117.92H208Z" fill="white"/>
</svg>
            </g>

            <g transform="translate(1200, 1200)">
                <svg width="256" height="256" title="npm" viewBox="0 0 256 256" fill="none" xmlns="http://www.w3.org/2000/svg">
<rect width="256" height="256" rx="25" fill="#CC0000"/>
<path d="M127.354 53H53V203H127.347V90.8267H165.173V203H203V53H127.354Z" fill="white"/>
</svg>
            </g>

            <g transform="translate(0, 1500)">
                <svg width="256" height="256" title="Vercel" viewBox="0 0 256 256" fill="none" xmlns="http://www.w3.org/2000/svg" id="vercel">
<style>
#vercel {
    rect {fill: #15191C}
    path {fill: #F4F2ED}

    @media (prefers-color-scheme: light) {
        rect {fill: #F4F2ED}
        path {fill: #15191C}
    }
}
</style>
<rect width="256" height="256" rx="25" fill="#15191C"/>
<path d="M208 198.333H48L128 58L208 198.333Z" fill="#F4F2ED"/>
</svg>
            </g>

            <g transform="translate(300, 1500)">
                <svg width="256" height="256" title="Cypress" viewBox="0 0 256 256" fill="none" xmlns="http://www.w3.org/2000/svg" id="cypress">
<style>
#cypress {
    rect {fill: #15191C}
    path.switch {fill: #F4F2ED}

    @media (prefers-color-scheme: light) {
        rect {fill: #F4F2ED}
        path.switch {fill: #15191C}
    }
}
</style>
<rect width="256" height="256" rx="25" fill="#15191C"/>
<path d="M53.9143 149.598C51.9832 142.565 51 135.261 51 127.903C51 94.3177 72.0933 63.6083 103.492 51.4982L107.609 62.1526C80.5815 72.5791 62.4288 99.0003 62.4288 127.903C62.4288 134.243 63.2715 140.522 64.9305 146.573L53.9143 149.598Z" fill="#69D3A7"/>
<path d="M195.862 95.4578C183.643 72.0004 159.591 57.4261 133.109 57.4261C123.725 57.4261 114.605 59.2326 106.02 62.784L101.64 52.2348C111.62 48.1046 122.206 46 133.109 46C163.875 46 191.806 62.9244 206 90.1787L195.862 95.4578Z" fill="url(#icon_26_linearGradient1)"/>
<path d="M108.592 111.005C115.219 111.005 120.618 114.539 123.392 120.704L123.611 121.186L134.741 117.407L134.504 116.837C130.194 106.34 120.266 99.8158 108.592 99.8158C100.384 99.8158 93.7134 102.447 88.2009 107.848C82.7233 113.215 79.9496 119.967 79.9496 127.921C79.9496 135.804 82.7233 142.521 88.2009 147.888C93.7134 153.29 100.384 155.921 108.592 155.921C120.266 155.921 130.194 149.396 134.504 138.909L134.741 138.339L123.593 134.55L123.383 135.05C120.898 141.11 115.368 144.731 108.592 144.731C103.975 144.731 100.077 143.118 96.9873 139.943C93.8625 136.725 92.2825 132.683 92.2825 127.93C92.2825 123.142 93.8273 119.178 96.9873 115.811C100.068 112.619 103.975 111.005 108.592 111.005Z" class="switch" fill="#F4F2ED"/>
<path d="M178.305 100.851L162.444 140.987L146.477 100.851H133.416L155.808 155.631L139.876 194.268L151.296 196.539L190.647 100.851H178.305Z" class="switch" fill="#F4F2ED"/>
<path d="M141.92 189.287L139.137 196.022C138.584 197.355 137.32 198.258 135.898 198.319C134.959 198.354 134.011 198.381 133.054 198.381C100.304 198.363 71.3278 175.274 64.1474 143.46L52.9995 145.976C57.0285 163.822 67.1407 180.018 81.475 191.594C95.9762 203.3 114.243 209.763 132.931 209.798C132.957 209.798 133.098 209.798 133.098 209.798C134.195 209.798 135.283 209.772 136.372 209.728C142.235 209.482 147.476 205.808 149.714 200.363L153.348 191.558L141.92 189.287Z" fill="url(#icon_26_linearGradient2)"/>


</svg>
            </g>

            <g transform="translate(600, 1500)">
                <svg width="256" height="256" title="Figma" viewBox="0 0 256 256" fill="none" xmlns="http://www.w3.org/2000/svg" id="figma">
<style>
#figma {
    rect {fill: #15191C}

    @media (prefers-color-scheme: light) {
        rect {fill: #F4F2ED}
    }
}
</style>
<rect width="256" height="256" rx="25" fill="#15191C"/>
<path d="M155.708 106.592H122.71V42H155.708C173.515 42 188 56.4849 188 74.2925C188 92.1001 173.515 106.592 155.708 106.592ZM133.29 96.0126H155.708C167.682 96.0126 177.42 86.2673 177.42 74.2997C177.42 62.332 167.675 52.5868 155.708 52.5868H133.29V96.0126ZM133.29 106.592H100.3C82.4921 106.592 68.0072 92.1073 68.0072 74.2997C68.0072 56.4921 82.4921 42 100.3 42H133.297V106.592H133.29ZM100.3 52.5796C88.3248 52.5796 78.5868 62.3248 78.5868 74.2925C78.5868 86.2601 88.3248 96.0126 100.3 96.0126H122.717V52.5796H100.3ZM133.29 160.598H100.3C82.4921 160.598 68.0072 146.113 68.0072 128.305C68.0072 110.497 82.4921 96.0126 100.3 96.0126H133.297V160.598H133.29ZM100.3 106.592C88.3248 106.592 78.5868 116.337 78.5868 128.305C78.5868 140.273 88.332 150.018 100.3 150.018H122.717V106.592H100.3ZM100.472 214.61C82.5712 214.61 68 200.125 68 182.318C68 164.51 82.4849 150.025 100.292 150.025H133.29V181.965C133.29 199.967 118.568 214.61 100.472 214.61ZM100.3 160.598C94.5434 160.605 89.025 162.895 84.9547 166.966C80.8844 171.036 78.5944 176.554 78.5868 182.31C78.5868 194.285 88.404 204.023 100.479 204.023C112.742 204.023 122.725 194.127 122.725 181.958V160.598H100.3ZM155.708 160.598H155.003C137.195 160.598 122.71 146.113 122.71 128.305C122.71 110.497 137.195 96.0126 155.003 96.0126H155.708C173.515 96.0126 188 110.497 188 128.305C188 146.113 173.515 160.598 155.708 160.598ZM155.01 106.592C143.035 106.592 133.297 116.337 133.297 128.305C133.297 140.273 143.042 150.018 155.01 150.018H155.715C167.69 150.018 177.428 140.273 177.428 128.305C177.428 116.337 167.675 106.592 155.708 106.592H155.01Z" fill="#F24E1E"/>
</svg>
            </g>

            <g transform="translate(900, 1500)">
                <svg width="256" height="256" title="Adobe Photoshop" viewBox="0 0 256 256" fill="none" xmlns="http://www.w3.org/2000/svg">
<rect width="256" height="256" rx="25" fill="#001E36"/>
<path d="M48 183.894V69.8835C48 69.108 48.3324 68.6648 49.108 68.6648C50.9915 68.6648 52.7643 68.6648 55.3126 68.554C57.9717 68.4432 60.7416 68.4432 63.7332 68.3324C66.7247 68.2216 69.9378 68.2216 73.3725 68.1108C76.8072 68 80.1311 68 83.455 68C92.5404 68 100.075 69.108 106.279 71.4347C111.819 73.3183 116.916 76.4206 121.126 80.5201C124.671 84.0656 127.441 88.3866 129.214 93.1509C130.876 97.8044 131.762 102.569 131.762 107.554C131.762 117.083 129.547 124.95 125.115 131.154C120.683 137.359 114.478 142.012 107.276 144.671C99.7422 147.441 91.4324 148.439 82.347 148.439C79.6879 148.439 77.9152 148.439 76.8072 148.328C75.6992 148.217 74.1481 148.217 72.0429 148.217V183.783C72.1537 184.558 71.5997 185.223 70.8242 185.334C70.7134 185.334 70.6026 185.334 70.381 185.334H49.3296C48.4432 185.334 48 184.891 48 183.894ZM72.1537 90.0486V127.276C73.7049 127.387 75.1452 127.498 76.4748 127.498H82.347C86.6681 127.498 90.9892 126.833 95.0887 125.504C98.6342 124.506 101.737 122.401 104.174 119.631C106.501 116.861 107.609 113.094 107.609 108.219C107.72 104.785 106.833 101.35 105.06 98.3584C103.177 95.4776 100.518 93.2617 97.3046 92.0429C93.2051 90.381 88.7733 89.7162 84.2306 89.827C81.3499 89.827 78.8015 89.827 76.6964 89.9378C74.4805 89.827 72.9293 89.9378 72.1537 90.0486Z" fill="#31A8FF"/>
<path d="M200.9 120.518C197.576 118.745 194.03 117.526 190.263 116.751C186.164 115.864 182.064 115.31 177.854 115.31C175.638 115.199 173.311 115.532 171.206 116.086C169.766 116.418 168.547 117.194 167.771 118.302C167.218 119.188 166.885 120.296 166.885 121.293C166.885 122.29 167.328 123.288 167.993 124.174C168.99 125.393 170.32 126.39 171.76 127.166C174.308 128.495 176.968 129.714 179.627 130.822C185.61 132.816 191.371 135.586 196.689 138.91C200.346 141.237 203.337 144.339 205.442 148.106C207.215 151.652 208.102 155.53 207.991 159.518C208.102 164.726 206.55 169.933 203.67 174.254C200.567 178.686 196.246 182.121 191.26 184.115C185.831 186.442 179.184 187.661 171.206 187.661C166.11 187.661 161.124 187.217 156.138 186.22C152.26 185.556 148.382 184.337 144.837 182.675C144.061 182.232 143.507 181.456 143.618 180.57V161.291C143.618 160.959 143.729 160.515 144.061 160.294C144.393 160.072 144.726 160.183 145.058 160.405C149.379 162.953 153.922 164.726 158.797 165.834C163.007 166.942 167.439 167.496 171.871 167.496C176.081 167.496 179.073 166.942 181.067 165.944C182.84 165.169 184.059 163.285 184.059 161.291C184.059 159.74 183.172 158.299 181.399 156.859C179.627 155.419 175.97 153.757 170.541 151.652C164.891 149.657 159.683 146.998 154.808 143.674C151.374 141.237 148.493 138.024 146.388 134.257C144.615 130.711 143.729 126.833 143.839 122.955C143.839 118.191 145.169 113.648 147.606 109.549C150.376 105.117 154.476 101.571 159.24 99.3555C164.448 96.6964 170.985 95.4776 178.851 95.4776C183.394 95.4776 188.047 95.81 192.59 96.4748C195.914 96.918 199.127 97.8044 202.119 99.0231C202.562 99.1339 203.005 99.5771 203.227 100.02C203.337 100.463 203.448 100.907 203.448 101.35V119.41C203.448 119.853 203.227 120.296 202.894 120.518C201.897 120.739 201.343 120.739 200.9 120.518Z" fill="#31A8FF"/>
</svg>
            </g>

            <g transform="translate(1200, 1500)">
                <svg width="256" height="256" title="Jira" viewBox="0 0 256 256" fill="none" xmlns="http://www.w3.org/2000/svg" id="jira">
<style>
#jira {
    rect {fill: #15191C}

    @media (prefers-color-scheme: light) {
        rect {fill: #F4F2ED}
    }
}
</style>
<rect width="256" height="256" rx="25" fill="#15191C"/>
<path d="M193.315 58H116.211C116.211 76.5655 131.81 91.677 150.975 91.677H165.236V104.846C165.236 123.411 180.836 138.523 200 138.523V64.4764C200 60.8064 197.103 58 193.315 58Z" fill="#2684FF"/>
<path d="M155.209 95.1305H78.1057C78.1057 113.696 93.7047 128.807 112.869 128.807H127.131V142.192C127.131 160.757 142.73 175.869 161.895 175.869V101.607C161.895 98.1528 158.997 95.1305 155.209 95.1305Z" fill="url(#icon_29_linearGradient1)"/>
<path d="M117.104 132.478H40C40 151.043 55.599 166.154 74.7634 166.154H89.0254V179.323C89.0254 197.889 104.624 213 123.789 213V138.954C123.789 135.284 120.669 132.478 117.104 132.478Z" fill="url(#icon_29_linearGradient2)"/>


</svg>
            </g>
    </svg>