<?xml version="1.0" encoding="utf-8"?>
<!-- Generator: Adobe Illustrator 16.0.0, SVG Export Plug-In . SVG Version: 6.00 Build 0)  -->
<!DOCTYPE svg PUBLIC "-//W3C//DTD SVG 1.1//EN" "http://www.w3.org/Graphics/SVG/1.1/DTD/svg11.dtd">
<svg version="1.1" id="Warstwa_1" xmlns="http://www.w3.org/2000/svg" xmlns:xlink="http://www.w3.org/1999/xlink" x="0px" y="0px"
	 width="242.201px" height="97.257px" viewBox="0 0 242.201 97.257" enable-background="new 0 0 242.201 97.257"
	 xml:space="preserve">
<rect fill="#FFFFFF" width="242.201" height="97.257"/>
<g>
	<g>
		<g>
			<path fill="#DA1C5C" d="M111.482,30.921c3.754-4.702,10.094-4.746,15.528-6.126c1.164-0.301,2.416,0.474,2.805,1.424
				c0.518,1.165-0.906,2.113-1.854,2.33c-3.323,1.206-6.815,0.732-9.88,2.373c-0.474,0.257-0.947,0.689-0.731,1.163
				c3.537,5.436,13.198,7.333,11.301,14.364c-1.64,6.126-10.611,7.162-16.004,4.703c-2.414-1.08-0.947-4.228,1.166-5.178
				c1.207-0.215,1.207,1.424,2.113,1.683c0.948,0.215,1.896,0,2.848,0.475c1.897,0.906,3.537-0.26,5.175-0.949
				c0.949-0.734,0.949-1.899,0.476-2.848c-3.323-4.227-8.24-5.867-11.561-10.136C111.87,32.905,110.533,32.084,111.482,30.921z"/>
			<path fill="#FBB040" d="M136.456,31.696c2.286-0.518,4.142-0.17,6.255,0.433c0.818,0.258,2.113,1.294,1.423,2.501
				c-0.56,1.078-1.638,0.904-2.674,1.252c-1.64,0.518-3.364-0.691-4.701-0.216c-3.45,1.208-4.399,5.132-3.365,8.453
				c1.079,3.538,5.004,5.393,8.455,4.228c1.295-0.431,3.062-2.373,4.227-1.511c1.38,1.124,2.2,2.59,0.733,3.625
				c-3.105,2.284-6.988,2.199-10.784,1.034c-1.639-0.518-3.407-1.166-4.787-2.286c-2.372-1.985-2.89-5.003-2.502-7.936
				C129.383,36.873,131.668,32.818,136.456,31.696z"/>
			<path fill="#27AAE1" d="M146.938,39.159c0.087-0.647,0.432-1.468,0.561-2.329c0.087-3.322-0.905-7.031,0.689-9.877
				c0.563-0.993,2.417-1.165,3.841-0.475c0.603,0.517,1.12,1.294,1.033,1.941c-0.473,2.803-2.068,6.082-0.689,8.497
				c0.561,0.774,3.537,1.465,3.926,0.43c1.164-3.147,0.172-6.856,0.733-10.31c0.344-2.156,3.666-2.067,4.141-0.903
				c1.424,3.75-0.173,7.977,0.086,11.991c0.13,0.69,1.295,1.336,1.424,2.199c0.086,0.691-0.82,0.993-0.905,1.424
				c-0.777,3.838,0.991,7.678,1.035,11.689c-5.954,1.25-4.66-7.333-6.168-11.387c-0.647-1.856-3.796-1.252-4.098-0.646
				c-1.727,2.586,0.948,6.556-0.26,9.919c-5.779,0.173-4.442-6.685-5.003-10.308C147.197,40.323,146.852,39.591,146.938,39.159z"/>
			<path fill="#92278F" d="M176.656,34.931c3.365,4.358,1.898,10.61-2.372,13.458c-2.804,1.899-6.124,2.115-8.713,0.214
				c-2.588-1.897-4.227-5.174-3.321-8.495C163.934,34.329,171.567,28.332,176.656,34.931z M171.006,46.277
				c2.76-1.295,3.796-4.53,3.063-7.551c-0.433-1.68-2.848-2.197-4.271-1.896c-1.423,0.257-3.321,4.573-3.062,5.908
				C167.211,44.853,168.591,47.355,171.006,46.277z"/>
			<path fill="#DA1C5C" d="M192.356,34.931c3.365,4.358,1.898,10.61-2.372,13.458c-2.804,1.899-6.125,2.115-8.713,0.214
				c-2.589-1.897-4.227-5.174-3.321-8.495C179.633,34.329,187.268,28.332,192.356,34.931z M186.706,46.277
				c2.761-1.295,3.795-4.53,3.063-7.551c-0.433-1.68-2.848-2.197-4.271-1.896c-1.424,0.257-3.32,4.573-3.062,5.908
				C182.912,44.853,184.291,47.355,186.706,46.277z"/>
			<path fill="#00A79D" d="M195.03,26.39c0.345-1.68,3.882-2.286,4.185-0.3c1.164,7.074-2.674,14.19-0.949,21.524
				c2.674,0,6.081,0.086,8.541-1.123c0.733-0.518,1.683-0.991,2.673-0.518c0.734,0.732,1.941,2.201,1.467,2.718
				c-3.968,4.615-10.783,1.206-16.131,3.665c-2.718-1.724-1.466-5.133-1.466-7.849C193.35,38.382,193.909,32.558,195.03,26.39z"/>
		</g>
	</g>
	<g>
		<path fill="#414042" d="M32.256,30.194c0.55-1.848,3.5-3.449,4.699-1.599c1.9,2.849-0.249,6.299,0.549,9.698
			c0.552,2.35,0.501,4.699,2.102,6.549c2.6-2.9,2.849-7.098,5.198-9.947c3.649-4.45,7.099,1.548,8.397,5.499
			c0,0.499,0.75,1.799,1.052,1.548c3.648-4.448,0.249-10.197,1.548-15.445c0.5-1.001,2.65-2.1,3.649-1.301
			c2.899,2.35,1.601,6.298,1.601,9.699c0,3.398-0.801,6.798-2.1,10.198c-0.551,1.05-1.1,2.3-2.101,3.099
			c-2.899,2.351-5.248-0.248-6.548-2.849c-1.05-2.099-1.801-3.649-3.15-5.499c-2.849,3.949-4.148,12.297-10.697,10.749
			C32.256,44.842,30.956,37.244,32.256,30.194z"/>
		<path fill="#414042" d="M77.397,33.346c3.9,5.048,2.199,12.296-2.75,15.595c-3.247,2.201-7.099,2.45-10.096,0.251
			c-3.001-2.2-4.901-5.999-3.85-9.849C62.651,32.645,71.5,25.696,77.397,33.346z M70.85,46.493c3.198-1.501,4.397-5.25,3.548-8.749
			c-0.499-1.949-3.298-2.549-4.948-2.2c-1.65,0.3-3.849,5.3-3.549,6.849C66.45,44.842,68.051,47.742,70.85,46.493z"/>
		<path fill="#414042" d="M78.897,30.194c0.551-1.848,3.499-3.449,4.7-1.599c1.898,2.849-0.251,6.299,0.548,9.698
			c0.551,2.35,0.502,4.699,2.101,6.549c2.6-2.9,2.849-7.098,5.199-9.947c3.649-4.45,7.098,1.548,8.397,5.499
			c0,0.499,0.751,1.799,1.05,1.548c3.649-4.448,0.25-10.197,1.551-15.445c0.5-1.001,2.648-2.1,3.648-1.301
			c2.899,2.35,1.6,6.298,1.6,9.699c0,3.398-0.799,6.798-2.1,10.198c-0.549,1.05-1.101,2.3-2.099,3.099
			c-2.899,2.351-5.25-0.248-6.55-2.849c-1.049-2.099-1.799-3.649-3.147-5.499c-2.851,3.949-4.15,12.297-10.699,10.749
			C78.897,44.842,77.596,37.244,78.897,30.194z"/>
	</g>
</g>
<g>
	<g>
		<path fill="#414042" d="M30.522,69.557h4.372c0.266,0,0.393,0.104,0.393,0.324c0,0.22-0.139,0.277-0.393,0.277h-4.696
			c-0.22,0-0.277-0.173-0.277-0.417v-6.523c0-0.231,0.058-0.417,0.277-0.417h4.696c0.266,0,0.393,0.104,0.393,0.324
			s-0.139,0.277-0.393,0.277h-4.372v2.313h2.995c0.231,0,0.417,0.069,0.417,0.324c0,0.22-0.162,0.278-0.417,0.278h-2.995V69.557z"/>
		<path fill="#414042" d="M39.436,66.839l-2.001-2.984v5.98c0,0.266-0.081,0.405-0.301,0.405c-0.243,0-0.301-0.185-0.301-0.394
			v-6.72c0-0.231,0.058-0.405,0.277-0.405c0.139,0,0.243,0.058,0.347,0.22l2.175,3.215l2.187-3.215
			c0.104-0.15,0.196-0.22,0.335-0.22c0.231,0,0.289,0.173,0.289,0.405v6.72c0,0.255-0.093,0.394-0.313,0.394
			c-0.231,0-0.289-0.174-0.289-0.405v-5.98l-2.001,2.984c-0.046,0.058-0.127,0.092-0.208,0.092
			C39.598,66.931,39.505,66.931,39.436,66.839z"/>
		<path fill="#414042" d="M44.671,70.239c-0.115,0-0.289-0.058-0.289-0.37v-6.65c0-0.231,0.058-0.417,0.277-0.417h2.094
			c1.526,0,2.51,0.335,2.51,1.792c0,1.168-0.752,1.781-2.001,1.781h-2.278v3.493C44.983,70.054,44.926,70.239,44.671,70.239z
			 M48.661,64.595c0-1.041-0.613-1.191-1.908-1.191h-1.77v2.371h1.77C48.095,65.774,48.661,65.601,48.661,64.595z"/>
		<path fill="#414042" d="M50.404,67.521v-2.082c0-1.747,1.145-2.741,2.684-2.741c1.526,0,2.683,0.995,2.683,2.741v2.082
			c0,1.747-1.156,2.741-2.683,2.741C51.549,70.262,50.404,69.268,50.404,67.521z M51.006,65.451v2.059
			c0,1.353,0.752,2.151,2.082,2.151s2.081-0.798,2.081-2.151v-2.059c0-1.342-0.751-2.151-2.081-2.151S51.006,64.109,51.006,65.451z"
			/>
		<path fill="#414042" d="M66.188,62.906c0.069-0.197,0.186-0.254,0.324-0.254c0.15,0,0.277,0.058,0.277,0.22
			c0,0.069,0,0.069-0.046,0.208l-2.221,7.079h-0.671l-2.047-6.396l-2.036,6.396h-0.659l-2.232-7.125
			c-0.046-0.139-0.046-0.139-0.046-0.208c0-0.162,0.127-0.22,0.277-0.22c0.139,0,0.255,0.058,0.324,0.254l2.012,6.465l2.024-6.407
			c0.081-0.243,0.255-0.301,0.336-0.301c0.208,0,0.312,0.15,0.358,0.301l2.035,6.407L66.188,62.906z"/>
		<path fill="#414042" d="M68.668,69.557h4.372c0.266,0,0.393,0.104,0.393,0.324c0,0.22-0.139,0.277-0.393,0.277h-4.696
			c-0.22,0-0.277-0.173-0.277-0.417v-6.523c0-0.231,0.058-0.417,0.277-0.417h4.696c0.266,0,0.393,0.104,0.393,0.324
			s-0.139,0.277-0.393,0.277h-4.372v2.313h2.995c0.231,0,0.417,0.069,0.417,0.324c0,0.22-0.162,0.278-0.417,0.278h-2.995V69.557z"/>
		<path fill="#414042" d="M79.953,69.869c0,0.22-0.128,0.37-0.313,0.37c-0.196,0-0.289-0.197-0.289-0.37
			c0-0.15-0.521-2.603-1.597-3.435h-2.174v3.435c0,0.185-0.058,0.37-0.313,0.37c-0.115,0-0.289-0.058-0.289-0.37v-6.65
			c0-0.231,0.058-0.417,0.277-0.417h2.082c1.538,0,2.521,0.335,2.521,1.792c0,0.96-0.497,1.55-1.354,1.724
			C79.352,67.14,79.953,69.719,79.953,69.869z M79.259,64.653c0-1.041-0.613-1.191-1.92-1.191h-1.758v2.371h1.758
			C78.692,65.833,79.259,65.659,79.259,64.653z"/>
		<path fill="#414042" d="M81.846,70.239c-0.115,0-0.289-0.058-0.289-0.37v-6.766c0-0.335,0.185-0.382,0.301-0.382
			c0.115,0,0.301,0.046,0.301,0.382v6.766C82.158,70.054,82.101,70.239,81.846,70.239z"/>
		<path fill="#414042" d="M88.945,70.158l-4.244-6.28v5.979c0,0.254-0.081,0.382-0.301,0.382c-0.243,0-0.301-0.185-0.301-0.394
			v-6.72c0-0.231,0.058-0.405,0.277-0.405c0.139,0,0.243,0.058,0.347,0.22l4.141,6.107v-5.91c0-0.22,0.059-0.417,0.29-0.417
			c0.254,0,0.312,0.185,0.312,0.405v6.72c0,0.22-0.058,0.394-0.289,0.394C89.085,70.239,88.992,70.216,88.945,70.158z"/>
		<path fill="#414042" d="M94.517,67.313c-0.301,0-0.417-0.116-0.417-0.289c0-0.254,0.162-0.313,0.417-0.313h2.116v2.186
			c0,0.602-0.115,1.261-1.156,1.261h-1.7c-1.538,0-2.51-0.289-2.51-2.047v-3.262c0-1.758,0.972-2.047,2.579-2.047h1.631
			c1.041,0,1.156,0.671,1.156,1.284c0,0.278-0.093,0.417-0.301,0.417c-0.185,0-0.301-0.104-0.301-0.394
			c0-0.497-0.127-0.706-0.636-0.706h-1.55c-1.399,0-1.978,0.127-1.978,1.458V68.1c0,1.33,0.578,1.457,1.908,1.457h1.619
			c0.509,0,0.636-0.196,0.636-0.694v-1.55H94.517z"/>
		<path fill="#414042" d="M101.717,70.239c-0.243,0-0.301-0.185-0.301-0.405v-6.616c0-0.231,0.058-0.417,0.277-0.417h4.696
			c0.266,0,0.393,0.104,0.393,0.324s-0.139,0.277-0.393,0.277h-4.372v2.313h2.995c0.231,0,0.417,0.069,0.417,0.324
			c0,0.22-0.162,0.278-0.417,0.278h-2.995v3.527C102.018,70.101,101.937,70.239,101.717,70.239z"/>
		<path fill="#414042" d="M113.093,62.721c0.231,0,0.289,0.197,0.289,0.382v4.418c0,1.747-1.156,2.741-2.683,2.741
			c-1.539,0-2.684-0.995-2.684-2.741v-4.418c0-0.335,0.185-0.382,0.301-0.382c0.115,0,0.301,0.046,0.301,0.37v4.418
			c0,1.353,0.752,2.151,2.082,2.151s2.081-0.798,2.081-2.151v-4.418C112.78,62.779,112.966,62.721,113.093,62.721z"/>
		<path fill="#414042" d="M119.531,63.114c0,0.231-0.196,0.289-0.382,0.289h-1.758v6.466c0,0.312-0.208,0.37-0.336,0.37
			c-0.127,0-0.3-0.058-0.3-0.37v-6.466h-1.781c-0.336,0-0.382-0.185-0.382-0.3s0.046-0.301,0.382-0.301h4.175
			C119.427,62.802,119.531,62.929,119.531,63.114z"/>
		<path fill="#414042" d="M125.82,62.721c0.231,0,0.289,0.197,0.289,0.382v4.418c0,1.747-1.156,2.741-2.683,2.741
			c-1.539,0-2.684-0.995-2.684-2.741v-4.418c0-0.335,0.185-0.382,0.301-0.382c0.115,0,0.301,0.046,0.301,0.37v4.418
			c0,1.353,0.752,2.151,2.082,2.151s2.081-0.798,2.081-2.151v-4.418C125.508,62.779,125.693,62.721,125.82,62.721z"/>
		<path fill="#414042" d="M132.953,69.869c0,0.22-0.128,0.37-0.313,0.37c-0.196,0-0.289-0.197-0.289-0.37
			c0-0.15-0.521-2.603-1.597-3.435h-2.174v3.435c0,0.185-0.058,0.37-0.313,0.37c-0.115,0-0.289-0.058-0.289-0.37v-6.65
			c0-0.231,0.058-0.417,0.277-0.417h2.082c1.538,0,2.521,0.335,2.521,1.792c0,0.96-0.497,1.55-1.354,1.724
			C132.352,67.14,132.953,69.719,132.953,69.869z M132.259,64.653c0-1.041-0.613-1.191-1.92-1.191h-1.758v2.371h1.758
			C131.692,65.833,132.259,65.659,132.259,64.653z"/>
		<path fill="#414042" d="M135.158,69.557h4.372c0.266,0,0.393,0.104,0.393,0.324c0,0.22-0.139,0.277-0.393,0.277h-4.696
			c-0.22,0-0.277-0.173-0.277-0.417v-6.523c0-0.231,0.058-0.417,0.277-0.417h4.696c0.266,0,0.393,0.104,0.393,0.324
			s-0.139,0.277-0.393,0.277h-4.372v2.313h2.995c0.231,0,0.417,0.069,0.417,0.324c0,0.22-0.162,0.278-0.417,0.278h-2.995V69.557z"/>
		<path fill="#414042" d="M147.586,67.313c-0.301,0-0.417-0.116-0.417-0.289c0-0.254,0.162-0.313,0.417-0.313h2.116v2.186
			c0,0.602-0.115,1.261-1.156,1.261h-1.7c-1.538,0-2.51-0.289-2.51-2.047v-3.262c0-1.758,0.972-2.047,2.579-2.047h1.631
			c1.041,0,1.156,0.671,1.156,1.284c0,0.278-0.092,0.417-0.301,0.417c-0.185,0-0.301-0.104-0.301-0.394
			c0-0.497-0.127-0.706-0.636-0.706h-1.55c-1.399,0-1.978,0.127-1.978,1.458V68.1c0,1.33,0.578,1.457,1.908,1.457h1.619
			c0.509,0,0.636-0.196,0.636-0.694v-1.55H147.586z"/>
		<path fill="#414042" d="M152.081,69.557h4.372c0.266,0,0.393,0.104,0.393,0.324c0,0.22-0.139,0.277-0.393,0.277h-4.696
			c-0.22,0-0.277-0.173-0.277-0.417v-6.523c0-0.231,0.058-0.417,0.277-0.417h4.696c0.266,0,0.393,0.104,0.393,0.324
			s-0.139,0.277-0.393,0.277h-4.372v2.313h2.995c0.231,0,0.417,0.069,0.417,0.324c0,0.22-0.162,0.278-0.417,0.278h-2.995V69.557z"/>
		<path fill="#414042" d="M163.237,70.158l-4.244-6.28v5.979c0,0.254-0.081,0.382-0.301,0.382c-0.243,0-0.301-0.185-0.301-0.394
			v-6.72c0-0.231,0.058-0.405,0.277-0.405c0.139,0,0.243,0.058,0.347,0.22l4.142,6.107v-5.91c0-0.22,0.058-0.417,0.289-0.417
			c0.254,0,0.312,0.185,0.312,0.405v6.72c0,0.22-0.058,0.394-0.289,0.394C163.377,70.239,163.284,70.216,163.237,70.158z"/>
		<path fill="#414042" d="M166.299,69.557h4.372c0.266,0,0.393,0.104,0.393,0.324c0,0.22-0.139,0.277-0.393,0.277h-4.696
			c-0.22,0-0.277-0.173-0.277-0.417v-6.523c0-0.231,0.058-0.417,0.277-0.417h4.696c0.266,0,0.393,0.104,0.393,0.324
			s-0.139,0.277-0.393,0.277h-4.372v2.313h2.995c0.231,0,0.417,0.069,0.417,0.324c0,0.22-0.162,0.278-0.417,0.278h-2.995V69.557z"/>
		<path fill="#414042" d="M177.584,69.869c0,0.22-0.128,0.37-0.313,0.37c-0.196,0-0.289-0.197-0.289-0.37
			c0-0.15-0.521-2.603-1.597-3.435h-2.174v3.435c0,0.185-0.058,0.37-0.313,0.37c-0.115,0-0.289-0.058-0.289-0.37v-6.65
			c0-0.231,0.058-0.417,0.277-0.417h2.082c1.538,0,2.521,0.335,2.521,1.792c0,0.96-0.497,1.55-1.354,1.724
			C176.982,67.14,177.584,69.719,177.584,69.869z M176.89,64.653c0-1.041-0.613-1.191-1.92-1.191h-1.758v2.371h1.758
			C176.323,65.833,176.89,65.659,176.89,64.653z"/>
		<path fill="#414042" d="M184.496,69.869c0.023,0.069,0.035,0.127,0.035,0.185c0,0.231-0.22,0.289-0.301,0.289
			c-0.139,0-0.243-0.104-0.313-0.266l-0.821-2.221h-3.169l-0.821,2.221c-0.058,0.139-0.174,0.266-0.313,0.266
			c-0.081,0-0.301-0.058-0.301-0.289c0-0.058,0.012-0.116,0.035-0.185l2.625-7.067h0.718L184.496,69.869z M180.159,67.255h2.706
			l-1.364-3.574L180.159,67.255z"/>
		<path fill="#414042" d="M189.304,63.114c0,0.231-0.196,0.289-0.382,0.289h-1.758v6.466c0,0.312-0.208,0.37-0.335,0.37
			c-0.128,0-0.301-0.058-0.301-0.37v-6.466h-1.781c-0.336,0-0.382-0.185-0.382-0.3s0.046-0.301,0.382-0.301h4.175
			C189.199,62.802,189.304,62.929,189.304,63.114z"/>
		<path fill="#414042" d="M190.874,70.239c-0.115,0-0.289-0.058-0.289-0.37v-6.766c0-0.335,0.185-0.382,0.301-0.382
			c0.115,0,0.301,0.046,0.301,0.382v6.766C191.187,70.054,191.129,70.239,190.874,70.239z"/>
		<path fill="#414042" d="M192.908,67.521v-2.082c0-1.747,1.145-2.741,2.684-2.741c1.526,0,2.683,0.995,2.683,2.741v2.082
			c0,1.747-1.156,2.741-2.683,2.741C194.053,70.262,192.908,69.268,192.908,67.521z M193.51,65.451v2.059
			c0,1.353,0.752,2.151,2.082,2.151s2.081-0.798,2.081-2.151v-2.059c0-1.342-0.751-2.151-2.081-2.151S193.51,64.109,193.51,65.451z"
			/>
		<path fill="#414042" d="M204.84,70.158l-4.244-6.28v5.979c0,0.254-0.081,0.382-0.301,0.382c-0.243,0-0.301-0.185-0.301-0.394
			v-6.72c0-0.231,0.058-0.405,0.277-0.405c0.139,0,0.243,0.058,0.347,0.22l4.141,6.107v-5.91c0-0.22,0.059-0.417,0.29-0.417
			c0.254,0,0.312,0.185,0.312,0.405v6.72c0,0.22-0.058,0.394-0.289,0.394C204.979,70.239,204.887,70.216,204.84,70.158z"/>
		<path fill="#414042" d="M208.329,65.774l2.741,0.59c1.122,0.243,1.469,1.134,1.469,1.99c0,0.867-0.428,1.897-1.966,1.897h-0.96
			c-1.597,0-2.58-0.29-2.58-2.082c0-0.243,0.116-0.382,0.324-0.382c0.174,0,0.289,0.15,0.289,0.382c0,1.353,0.556,1.48,1.967,1.48
			h1.18c0.925,0,1.145-0.844,1.145-1.307c0-0.833-0.428-1.272-0.693-1.33l-2.719-0.602c-1.099-0.243-1.492-0.798-1.492-1.827
			c0-0.868,0.44-1.874,2.048-1.874h0.879c1.585,0,2.579,0.266,2.579,2.059c0,0.243-0.115,0.381-0.313,0.381
			c-0.185,0-0.301-0.15-0.301-0.381c0-1.354-0.555-1.458-1.966-1.458h-1.134c-0.925,0-1.191,0.787-1.191,1.284
			C207.635,65.231,207.959,65.694,208.329,65.774z"/>
	</g>
</g>
</svg>
